<svg width="278" height="245" viewBox="0 0 278 245" fill="none" xmlns="http://www.w3.org/2000/svg">
<path d="M258.849 207.525C256.963 207.525 255.145 207.812 253.433 208.343H252.481C251.645 206.787 250.568 205.321 249.25 204.002C244.217 198.969 237.042 197.462 230.849 199.486C229.117 196.304 225.743 194.143 221.864 194.143C220.945 194.143 220.059 194.276 219.212 194.503C218.394 192.441 217.153 190.508 215.484 188.839C208.925 182.28 198.29 182.28 191.73 188.839C189.295 191.274 187.768 194.272 187.141 197.414C186.337 197.192 185.494 197.065 184.62 197.065C180.984 197.065 177.829 199.11 176.234 202.111C173.951 198.222 169.737 195.604 164.902 195.604C163.955 195.604 163.034 195.709 162.144 195.899C145.487 181.738 144.197 141.097 146.47 131.1H137.833C137.833 131.1 139.681 163.676 129.403 184.227C124.11 183.202 118.419 184.74 114.32 188.839C113.005 190.154 111.966 191.638 111.179 193.215C110.16 192.875 109.073 192.683 107.94 192.683C102.294 192.683 97.7159 197.26 97.7159 202.907C97.7159 203.32 97.7473 203.725 97.7953 204.125C95.2582 202.443 92.2266 201.446 88.9528 201.446C84.7482 201.446 80.9364 203.075 78.0753 205.72C75.84 203.963 73.0289 202.907 69.9656 202.907C66.7991 202.907 63.9087 204.042 61.643 205.91C61.6124 201.413 59.8865 196.925 56.4554 193.494C49.5318 186.57 38.3062 186.57 31.3821 193.494C29.4789 195.397 28.1236 197.631 27.2708 200.005C27.1398 200 27.0113 199.986 26.879 199.986C22.2839 199.986 18.4949 203.266 17.6184 207.603C8.26451 208.383 0.912598 216.208 0.912598 225.763C0.912598 235.836 9.07783 244.001 19.1505 244.001C20.0181 244.001 20.8646 243.92 21.6996 243.803H255.457V243.674C256.558 243.881 257.689 244.001 258.849 244.001C268.922 244.001 277.087 235.836 277.087 225.763C277.087 215.691 268.922 207.525 258.849 207.525Z" fill="#DCEAF7"/>
<path d="M194.333 19.6419L197.175 24.84L202.374 27.683L197.175 30.5259L194.333 35.724L191.49 30.5259L186.291 27.683L191.49 24.84L194.333 19.6419ZM194.333 15.123L192.43 18.6014L189.892 23.2424L185.251 25.7806L181.772 27.683L185.251 29.5855L189.892 32.1236L192.43 36.7645L194.333 40.2429L196.235 36.7643L198.773 32.1236L203.414 29.5855L206.893 27.683L203.414 25.7806L198.773 23.2424L196.235 18.6016L194.333 15.123Z" fill="#EB6F5E"/>
<path d="M67.8942 130.275L70.737 135.473L75.9353 138.316L70.737 141.159L67.8942 146.357L65.0512 141.159L59.853 138.316L65.0512 135.473L67.8942 130.275ZM67.8942 125.756L65.9919 129.234L63.4536 133.875L58.8125 136.413L55.334 138.316L58.8125 140.218L63.4536 142.756L65.9919 147.397L67.8942 150.876L69.7965 147.397L72.3346 142.756L76.9757 140.218L80.4543 138.316L76.9757 136.413L72.3346 133.875L69.7965 129.234L67.8942 125.756Z" fill="#EB6F5E"/>
<path d="M209.456 4.51889L211.449 8.16338L215.094 10.1566L211.449 12.1498L209.456 15.7943L207.463 12.1498L203.818 10.1566L207.463 8.16338L209.456 4.51889ZM209.456 0L207.554 3.4784L205.865 6.56572L202.778 8.25417L199.3 10.1566L202.778 12.0591L205.865 13.7475L207.554 16.8348L209.456 20.3132L211.358 16.8347L213.047 13.7475L216.134 12.0591L219.613 10.1566L216.134 8.25417L213.047 6.56572L211.358 3.47853L209.456 0Z" fill="#EB6F5E"/>
<path d="M67.3601 88.8007C69.4641 87.5818 70.8835 85.3111 70.8835 82.7043C70.8835 78.8124 67.7285 75.6575 63.8367 75.6575C63.361 75.6575 62.8967 75.706 62.4474 75.7959C61.4126 70.3673 56.6476 66.2617 50.9174 66.2617C46.0787 66.2617 41.9265 69.1893 40.1276 73.3684C39.8138 73.3321 39.4961 73.3085 39.1727 73.3085C34.6322 73.3085 30.9514 76.9894 30.9514 81.5299C30.9514 84.8076 32.8742 87.6289 35.6493 88.9494C35.6493 88.9494 53.2663 92.1001 67.3601 88.8007Z" fill="#DCEAF7"/>
<path d="M251.821 77.2055C253.862 76.2346 255.276 74.16 255.276 71.75C255.276 68.4114 252.569 65.7049 249.231 65.7049C248.993 65.7049 248.759 65.7222 248.529 65.7489C247.206 62.676 244.153 60.5234 240.595 60.5234C236.382 60.5234 232.878 63.5423 232.117 67.5338C231.787 67.4677 231.445 67.4321 231.095 67.4321C228.234 67.4321 225.914 69.7519 225.914 72.6136C225.914 74.5303 226.958 76.1999 228.505 77.0962C228.505 77.0962 236.622 81.1016 251.821 77.2055Z" fill="#DCEAF7"/>
<path d="M95.8738 27.8759C97.0686 27.3074 97.8966 26.0926 97.8966 24.6813C97.8966 22.7264 96.3118 21.1415 94.3568 21.1415C94.2176 21.1415 94.0807 21.1517 93.9457 21.1673C93.1711 19.3679 91.3833 18.1074 89.2999 18.1074C86.8328 18.1074 84.7812 19.8752 84.3356 22.2125C84.1421 22.1738 83.9422 22.1529 83.7375 22.1529C82.0617 22.1529 80.7034 23.5114 80.7034 25.187C80.7034 26.3094 81.3144 27.2871 82.2204 27.8119C82.2204 27.8119 89.1533 30.5975 95.8738 27.8759Z" fill="#DCEAF7"/>
<path d="M214.268 128.145C212.972 127.491 212.074 126.094 212.074 124.472C212.074 122.224 213.793 120.402 215.914 120.402C216.065 120.402 216.214 120.414 216.36 120.432C217.201 118.363 219.14 116.914 221.4 116.914C224.077 116.914 226.303 118.946 226.786 121.634C226.996 121.589 227.213 121.565 227.435 121.565C229.253 121.565 230.726 123.127 230.726 125.053C230.726 126.344 230.063 127.468 229.081 128.071C229.081 128.071 221.559 131.274 214.268 128.145Z" fill="#DCEAF7"/>
<path d="M155.257 36.6423C152.341 32.6946 148.926 29.1262 145.106 26.1069C142.914 24.3713 139.835 24.3536 137.621 26.0629C133.881 28.9533 130.519 32.3689 127.616 36.1493C131.887 37.5437 136.831 38.3027 141.981 38.3326C146.635 38.3589 151.237 37.7704 155.257 36.6423Z" fill="#F9B59E"/>
<path d="M164.158 58.7093C163.719 54.5848 162.742 50.4399 160.542 45.3134C159.457 42.7845 157.926 40.4682 156.366 38.2011C156.266 38.2919 156.149 38.3662 156.013 38.406C151.843 39.6066 147.076 40.2366 142.215 40.2301C142.134 40.2301 142.053 40.2289 141.971 40.2286C136.385 40.1974 131.014 39.3394 126.424 37.752C124.762 40.0828 123.264 42.5338 121.979 45.0941C119.034 50.9631 118.156 57.1848 117.883 63.9082C117.789 64.2652 117.723 64.6326 117.723 65.0188V71.1725L117.694 72.1527C117.692 72.2153 117.714 72.2707 117.723 72.3304V109.789C117.723 111.701 119.273 113.251 121.185 113.251H126.541L126.404 113.693H126.742C126.791 114.349 126.884 114.999 127.012 115.626L133.228 132.05L151.037 131.996L156.015 116.988C156.286 115.97 156.621 114.604 156.771 113.317C156.875 113.296 156.979 113.27 157.084 113.251H161.237C163.149 113.251 164.699 111.701 164.699 109.789V65.0188C164.699 61.259 164.502 59.4414 164.158 58.7093Z" fill="#F9B59E"/>
<path d="M141.875 79.0176C141.87 79.0176 141.864 79.0176 141.859 79.0176C140.057 79.0176 138.613 80.7682 137.427 89.2494C136.611 95.0828 136.137 102.827 136.092 111.058C136.038 120.701 136.46 143.132 141.517 143.16C141.523 143.16 141.529 143.16 141.534 143.16C143.336 143.16 144.778 141.41 145.964 132.928C146.78 127.095 147.254 119.35 147.3 111.12C147.353 101.477 146.932 79.046 141.875 79.0176Z" fill="#FF7742"/>
<path d="M178.843 87.6878L164.473 69.7921C163.954 69.1462 163.009 69.0415 162.359 69.5609C162.016 69.8365 161.837 70.2315 161.812 70.6389L161.8 70.638L159.482 107.085L159.495 107.086C159.484 107.257 159.49 107.432 159.541 107.607L167.542 134.722C167.731 135.358 168.312 135.797 168.976 135.799C168.984 135.799 168.991 135.799 168.999 135.799C172.551 135.799 174.931 131.27 174.946 128.29C174.986 127.466 176.291 118.638 177.441 110.849C179.302 98.2692 180.177 92.256 180.181 91.4743C180.188 90.0916 179.709 88.7429 178.843 87.6878Z" fill="#FF7742"/>
<path d="M121.36 109.697L120.145 72.134L120.131 72.1346C120.118 71.7197 119.949 71.3127 119.604 71.0266C118.967 70.4972 118.019 70.5826 117.487 71.2222L102.757 88.9489C101.867 90.0059 101.374 91.3509 101.374 92.8923L105.157 130.572C105.139 133.845 107.789 136.522 111.06 136.54C111.064 136.54 111.066 136.54 111.07 136.54C111.71 136.54 112.279 136.136 112.49 135.531L121.278 110.239C121.34 110.06 121.362 109.877 121.356 109.697L121.36 109.697Z" fill="#FF7742"/>
<path d="M155.359 64.6516C157.185 57.4813 152.853 50.1881 145.683 48.3619C138.512 46.5357 131.219 50.868 129.393 58.0384C127.567 65.2087 131.899 72.5019 139.069 74.3281C146.24 76.1543 153.533 71.822 155.359 64.6516Z" fill="#FF7742"/>
<path d="M153.669 61.0538C153.269 60.4207 152.427 60.2289 151.788 60.629C151.155 61.03 150.964 61.873 151.362 62.508L151.364 62.5099C151.623 62.9191 152.067 63.1438 152.52 63.1438C152.768 63.1438 153.019 63.0768 153.243 62.9347C153.88 62.5346 154.071 61.6914 153.669 61.0538Z" fill="white"/>
<path d="M133.115 60.2831C132.715 59.6491 131.872 59.4574 131.234 59.8575C130.601 60.2583 130.41 61.1015 130.808 61.7365C131.003 62.0456 131.305 62.2594 131.66 62.3402C131.762 62.363 131.863 62.3741 131.964 62.3741C132.219 62.3741 132.469 62.3025 132.691 62.1639C133.324 61.7629 133.515 60.9199 133.115 60.2831Z" fill="white"/>
<path d="M150.933 53.6782C150.74 53.3699 150.437 53.1552 150.081 53.0744C149.723 52.9918 149.358 53.0552 149.052 53.2507C148.744 53.4453 148.531 53.7479 148.45 54.1011C148.369 54.4562 148.431 54.8224 148.626 55.1305C148.821 55.4389 149.123 55.6528 149.479 55.7324C149.58 55.7554 149.681 55.7674 149.782 55.7674C150.037 55.7674 150.287 55.6958 150.507 55.5564C150.815 55.3619 151.028 55.0591 151.109 54.7058C151.189 54.3517 151.127 53.9865 150.933 53.6782Z" fill="white"/>
<path d="M135.853 67.6645C135.66 67.3563 135.358 67.1415 135.002 67.0608C134.28 66.8966 133.537 67.3526 133.368 68.0893C133.289 68.4444 133.352 68.8095 133.546 69.1168C133.741 69.4252 134.044 69.6399 134.4 69.7198C134.501 69.7418 134.601 69.7537 134.702 69.7537C134.957 69.7537 135.207 69.6821 135.427 69.5427C135.736 69.3482 135.948 69.0454 136.029 68.6922C136.11 68.338 136.047 67.9729 135.853 67.6645Z" fill="white"/>
<path d="M143.78 50.3941C143.38 49.7583 142.534 49.5712 141.897 49.9666C141.264 50.3677 141.073 51.2107 141.473 51.8475C141.732 52.2575 142.176 52.4824 142.63 52.4824C142.877 52.4824 143.128 52.4145 143.352 52.2731H143.354C143.987 51.8723 144.178 51.0291 143.78 50.3941Z" fill="white"/>
<path d="M143.006 70.9474C142.606 70.3134 141.761 70.1207 141.127 70.5226C140.49 70.9225 140.299 71.7658 140.699 72.4016C140.893 72.7099 141.196 72.9245 141.55 73.0043C141.651 73.0273 141.754 73.0393 141.855 73.0393C142.108 73.0393 142.358 72.9677 142.578 72.8283C143.215 72.4281 143.407 71.5851 143.006 70.9474Z" fill="white"/>
<path d="M149.534 67.6076C149.176 67.525 148.811 67.5884 148.505 67.7839C148.197 67.9783 147.984 68.2811 147.903 68.6344C147.822 68.9885 147.885 69.3536 148.079 69.6619C148.272 69.9702 148.575 70.1849 148.931 70.2656C149.032 70.2887 149.133 70.2996 149.233 70.2996C149.854 70.2996 150.419 69.8702 150.564 69.2389V69.2372C150.729 68.5041 150.266 67.7728 149.534 67.6076Z" fill="white"/>
<path d="M142.376 69.0839C146.65 69.0839 150.114 65.6193 150.114 61.3456C150.114 57.072 146.65 53.6074 142.376 53.6074C138.102 53.6074 134.638 57.072 134.638 61.3456C134.638 65.6193 138.102 69.0839 142.376 69.0839Z" fill="white"/>
<path d="M136.4 53.1293C136.207 52.821 135.904 52.6064 135.548 52.5256C134.831 52.3614 134.084 52.8175 133.915 53.555C133.75 54.2881 134.213 55.0194 134.945 55.1846C135.046 55.2075 135.148 55.2194 135.249 55.2194C135.504 55.2194 135.754 55.147 135.974 55.0083C136.282 54.8137 136.495 54.5111 136.576 54.1551C136.657 53.8018 136.594 53.4376 136.4 53.1293Z" fill="white"/>
</svg>
