<svg width="32" height="32" viewBox="0 0 32 32" fill="none" xmlns="http://www.w3.org/2000/svg">
<path d="M16 4C17.5759 4 19.1363 4.31039 20.5922 4.91345C22.0481 5.5165 23.371 6.40042 24.4853 7.51472C25.5996 8.62902 26.4835 9.95189 27.0866 11.4078C27.6896 12.8637 28 14.4241 28 16C28 17.5759 27.6896 19.1363 27.0866 20.5922C26.4835 22.0481 25.5996 23.371 24.4853 24.4853C23.371 25.5996 22.0481 26.4835 20.5922 27.0866C19.1363 27.6896 17.5759 28 16 28C12.8174 28 9.76515 26.7357 7.51472 24.4853C5.26428 22.2348 4 19.1826 4 16C4 12.8174 5.26428 9.76515 7.51472 7.51472C9.76515 5.26428 12.8174 4 16 4ZM20.24 12.328L14.5 18.084L11.708 15.292C11.615 15.199 11.5046 15.1253 11.3832 15.075C11.2617 15.0246 11.1315 14.9987 11 14.9987C10.8685 14.9987 10.7383 15.0246 10.6168 15.075C10.4954 15.1253 10.385 15.199 10.292 15.292C10.199 15.385 10.1253 15.4954 10.075 15.6168C10.0246 15.7383 9.99874 15.8685 9.99874 16C9.99874 16.1315 10.0246 16.2617 10.075 16.3832C10.1253 16.5046 10.199 16.615 10.292 16.708L13.792 20.208C13.8849 20.3011 13.9952 20.375 14.1167 20.4254C14.2382 20.4758 14.3685 20.5018 14.5 20.5018C14.6315 20.5018 14.7618 20.4758 14.8833 20.4254C15.0048 20.375 15.1151 20.3011 15.208 20.208L21.656 13.74C21.8379 13.5511 21.9384 13.2984 21.9357 13.0362C21.9331 12.774 21.8276 12.5233 21.6419 12.3382C21.4562 12.153 21.2052 12.0482 20.943 12.0463C20.6808 12.0444 20.4283 12.1456 20.24 12.328Z" fill="#1C0F61"/>
</svg>
