<svg width="21" height="20" viewBox="0 0 21 20" fill="none" xmlns="http://www.w3.org/2000/svg">
<path d="M19.5492 6.89181L13.5984 6.02696L10.9383 0.633993C10.8656 0.486337 10.7461 0.366806 10.5984 0.294149C10.2281 0.111337 9.77811 0.263681 9.59295 0.633993L6.93279 6.02696L0.982014 6.89181C0.817952 6.91524 0.667952 6.99259 0.553108 7.10977C0.414268 7.25248 0.337761 7.44446 0.340398 7.64354C0.343035 7.84263 0.4246 8.03252 0.56717 8.17149L4.87264 12.3691L3.85545 18.2965C3.8316 18.4344 3.84686 18.5762 3.8995 18.7058C3.95213 18.8355 4.04005 18.9478 4.15327 19.03C4.26649 19.1123 4.40048 19.1611 4.54006 19.1711C4.67964 19.181 4.81921 19.1517 4.94295 19.0863L10.2656 16.2879L15.5883 19.0863C15.7336 19.1637 15.9023 19.1895 16.064 19.1613C16.4719 19.091 16.7461 18.7043 16.6758 18.2965L15.6586 12.3691L19.964 8.17149C20.0812 8.05665 20.1586 7.90665 20.182 7.74259C20.2453 7.33243 19.9594 6.95274 19.5492 6.89181Z" fill="#FF7742"/>
</svg>
