<svg width="20" height="18" viewBox="0 0 20 18" fill="none" xmlns="http://www.w3.org/2000/svg">
<path opacity="0.4" fill-rule="evenodd" clip-rule="evenodd" d="M9.99024 0.881897H10C11.3951 0.881897 12.7512 1.21663 14 1.84573L10.7415 5.13497C10.5073 5.09559 10.2537 5.06606 10 5.06606C7.8439 5.06606 6.09756 6.82833 6.09756 9.00409C6.09756 9.26006 6.12683 9.51604 6.16585 9.75232L2.5561 13.395C1.58049 12.253 0.731707 10.8737 0.0585366 9.2896C-0.0195122 9.11239 -0.0195122 8.8958 0.0585366 8.70874C2.14634 3.80589 5.86341 0.881897 9.99024 0.881897ZM16.4293 3.54991C17.8439 4.84947 19.0439 6.60189 19.9415 8.70874C20.0195 8.8958 20.0195 9.11239 19.9415 9.2896C17.8537 14.1925 14.1366 17.1263 10 17.1263H9.99024C8.10732 17.1263 6.30244 16.506 4.71219 15.3739L7.80488 12.253C8.42927 12.6753 9.19024 12.9323 10 12.9323C12.1463 12.9323 13.8927 11.17 13.8927 9.00409C13.8927 8.18695 13.639 7.41903 13.2195 6.78895L16.4293 3.54991Z" fill="#1C0F61"/>
<path fill-rule="evenodd" clip-rule="evenodd" d="M16.4291 3.54952L18.2047 1.75771C18.4974 1.4722 18.4974 0.999638 18.2047 0.714131C17.9218 0.428623 17.4633 0.428623 17.1706 0.714131L16.2535 1.63957C16.2437 1.65926 16.2242 1.67895 16.2047 1.69864C16.195 1.71833 16.1754 1.73802 16.1559 1.75771L15.2876 2.63491L12.195 5.7558L1.72667 16.3186L1.6974 16.358C1.50228 16.6435 1.5413 17.0383 1.7852 17.2844C1.92179 17.4311 2.11691 17.5 2.30228 17.5C2.48764 17.5 2.67301 17.4311 2.81935 17.2844L13.2193 6.78855L16.4291 3.54952ZM9.99993 11.4555C11.3365 11.4555 12.4292 10.3529 12.4292 9.00409C12.4292 8.59059 12.3316 8.19679 12.156 7.86206L8.86823 11.1798C9.19993 11.3571 9.59018 11.4555 9.99993 11.4555Z" fill="#1C0F61"/>
</svg>
