<svg width="24" height="28" viewBox="0 0 24 28" fill="none" xmlns="http://www.w3.org/2000/svg">
<path opacity="0.4" d="M17.588 0.666504H6.41333C2.36 0.666504 0 3.03984 0 7.1065V20.8798C0 25.0132 2.36 27.3332 6.41333 27.3332H17.588C21.7067 27.3332 24 25.0132 24 20.8798V7.1065C24 3.03984 21.7067 0.666504 17.588 0.666504Z" fill="#1C0F61"/>
<path fill-rule="evenodd" clip-rule="evenodd" d="M6.77331 6.8667V6.88003C6.19864 6.88003 5.73331 7.3467 5.73331 7.92003C5.73331 8.49337 6.19864 8.96003 6.77331 8.96003H10.7586C11.3333 8.96003 11.8 8.49337 11.8 7.90537C11.8 7.33337 11.3333 6.8667 10.7586 6.8667H6.77331ZM17.2266 14.9867H6.77331C6.19864 14.9867 5.73331 14.5201 5.73331 13.9467C5.73331 13.3734 6.19864 12.9054 6.77331 12.9054H17.2266C17.8 12.9054 18.2666 13.3734 18.2666 13.9467C18.2666 14.5201 17.8 14.9867 17.2266 14.9867ZM17.2266 21.08H6.77328C6.37328 21.1333 5.98661 20.9333 5.77328 20.6C5.55995 20.2533 5.55995 19.8133 5.77328 19.48C5.98661 19.1333 6.37328 18.9467 6.77328 18.9867H17.2266C17.7586 19.04 18.1599 19.4933 18.1599 20.04C18.1599 20.572 17.7586 21.0267 17.2266 21.08Z" fill="#1C0F61"/>
</svg>
