<svg width="36" height="37" viewBox="0 0 36 37" fill="none" xmlns="http://www.w3.org/2000/svg">
<path d="M14.7901 27.7162C14.5845 27.7155 14.3811 27.6726 14.1927 27.59C14.0044 27.5074 13.835 27.387 13.6951 27.2362L6.40513 19.4812C6.13262 19.1908 5.98664 18.804 5.99929 18.4059C6.01195 18.0079 6.18222 17.6312 6.47263 17.3587C6.76304 17.0862 7.14981 16.9402 7.54786 16.9528C7.9459 16.9655 8.32262 17.1358 8.59513 17.4262L14.7751 24.0112L27.3901 10.2112C27.5181 10.0518 27.6774 9.9202 27.8581 9.82457C28.0388 9.72894 28.2372 9.67127 28.441 9.65509C28.6448 9.63892 28.8498 9.66458 29.0433 9.7305C29.2369 9.79642 29.4149 9.90122 29.5665 10.0384C29.718 10.1757 29.8399 10.3424 29.9247 10.5285C30.0095 10.7145 30.0553 10.916 30.0594 11.1204C30.0635 11.3248 30.0257 11.5279 29.9485 11.7172C29.8712 11.9065 29.7561 12.078 29.6101 12.2212L15.9001 27.2212C15.7616 27.3747 15.5928 27.4979 15.4044 27.5831C15.2159 27.6683 15.0119 27.7136 14.8051 27.7162H14.7901Z" fill="#FB9204"/>
</svg>
