<svg width="36" height="37" viewBox="0 0 36 37" fill="none" xmlns="http://www.w3.org/2000/svg">
<path d="M14.7901 27.2064C14.5845 27.2057 14.3811 27.1628 14.1927 27.0802C14.0044 26.9976 13.835 26.8772 13.6951 26.7264L6.40513 18.9714C6.13262 18.681 5.98664 18.2942 5.99929 17.8962C6.01195 17.4981 6.18222 17.1214 6.47263 16.8489C6.76304 16.5764 7.14981 16.4304 7.54786 16.4431C7.9459 16.4557 8.32262 16.626 8.59513 16.9164L14.7751 23.5014L27.3901 9.70141C27.5181 9.54199 27.6774 9.41043 27.8581 9.3148C28.0388 9.21918 28.2372 9.1615 28.441 9.14533C28.6448 9.12915 28.8498 9.15481 29.0433 9.22074C29.2369 9.28666 29.4149 9.39145 29.5665 9.52868C29.718 9.6659 29.8399 9.83267 29.9247 10.0187C30.0095 10.2048 30.0553 10.4062 30.0594 10.6106C30.0635 10.815 30.0257 11.0181 29.9485 11.2074C29.8712 11.3967 29.7561 11.5682 29.6101 11.7114L15.9001 26.7114C15.7616 26.8649 15.5928 26.9882 15.4044 27.0734C15.2159 27.1585 15.0119 27.2038 14.8051 27.2064H14.7901Z" fill="#0639F9"/>
</svg>
