<svg width="37" height="37" viewBox="0 0 37 37" fill="none" xmlns="http://www.w3.org/2000/svg">
<path d="M15.685 27.8353C15.4794 27.8347 15.276 27.7917 15.0876 27.7091C14.8993 27.6266 14.7299 27.5061 14.59 27.3553L7.30003 19.6003C7.02752 19.3099 6.88153 18.9231 6.89419 18.5251C6.90685 18.127 7.07711 17.7503 7.36753 17.4778C7.65794 17.2053 8.04471 17.0593 8.44276 17.072C8.8408 17.0846 9.21752 17.2549 9.49003 17.5453L15.67 24.1303L28.285 10.3303C28.413 10.1709 28.5723 10.0393 28.753 9.94371C28.9337 9.84808 29.1321 9.79041 29.3359 9.77423C29.5397 9.75806 29.7447 9.78372 29.9382 9.84964C30.1318 9.91556 30.3098 10.0204 30.4613 10.1576C30.6129 10.2948 30.7348 10.4616 30.8196 10.6476C30.9044 10.8337 30.9502 11.0351 30.9543 11.2395C30.9584 11.4439 30.9206 11.647 30.8434 11.8363C30.7661 12.0256 30.651 12.1971 30.505 12.3403L16.795 27.3403C16.6565 27.4938 16.4877 27.6171 16.2993 27.7023C16.1108 27.7874 15.9068 27.8327 15.7 27.8353H15.685Z" fill="#CC0DF2"/>
</svg>
