<svg width="26" height="30" viewBox="0 0 26 30" fill="none" xmlns="http://www.w3.org/2000/svg">
<path d="M24.6543 14.468C23.5585 13.1884 23.0606 12.0796 23.0606 10.1957V9.5552C23.0606 7.1003 22.4956 5.5186 21.2672 3.93689C19.3739 1.48049 16.1866 0 13.0663 0H12.9337C9.87903 0 6.7916 1.41251 4.86549 3.7692C3.56999 5.38263 2.93939 7.03232 2.93939 9.5552V10.1957C2.93939 12.0796 2.47426 13.1884 1.34573 14.468C0.515361 15.4107 0.25 16.6223 0.25 17.9336C0.25 19.2464 0.680839 20.4897 1.5455 21.5003C2.67403 22.7119 4.26768 23.4854 5.89563 23.6198C8.25257 23.8887 10.6095 23.99 13.0007 23.99C15.3905 23.99 17.7474 23.8208 20.1059 23.6198C21.7323 23.4854 23.326 22.7119 24.4545 21.5003C25.3177 20.4897 25.75 19.2464 25.75 17.9336C25.75 16.6223 25.4846 15.4107 24.6543 14.468Z" fill="#1C0F61"/>
<path opacity="0.4" d="M16.0126 25.8428C15.2628 25.6826 10.6935 25.6826 9.94363 25.8428C9.30259 25.9908 8.60938 26.3352 8.60938 27.0906C8.64664 27.8112 9.06854 28.4472 9.65293 28.8506L9.65144 28.8521C10.4073 29.4413 11.2943 29.8159 12.2231 29.9504C12.718 30.0183 13.2219 30.0153 13.7347 29.9504C14.662 29.8159 15.549 29.4413 16.3048 28.8521L16.3034 28.8506C16.8877 28.4472 17.3096 27.8112 17.3469 27.0906C17.3469 26.3352 16.6537 25.9908 16.0126 25.8428Z" fill="#1C0F61"/>
</svg>
