<svg width="25" height="25" viewBox="0 0 25 25" fill="none" xmlns="http://www.w3.org/2000/svg">
<path d="M12.5 0.0200195C14.0759 0.0200195 15.6363 0.330409 17.0922 0.933465C18.5481 1.53652 19.871 2.42043 20.9853 3.53474C22.0996 4.64904 22.9835 5.97191 23.5866 7.42782C24.1896 8.88373 24.5 10.4442 24.5 12.02C24.5 13.5959 24.1896 15.1563 23.5866 16.6122C22.9835 18.0681 22.0996 19.391 20.9853 20.5053C19.871 21.6196 18.5481 22.5035 17.0922 23.1066C15.6363 23.7096 14.0759 24.02 12.5 24.02C9.3174 24.02 6.26515 22.7557 4.01472 20.5053C1.76428 18.2549 0.5 15.2026 0.5 12.02C0.5 8.83742 1.76428 5.78517 4.01472 3.53474C6.26515 1.2843 9.3174 0.0200196 12.5 0.0200195ZM16.74 8.34802L11 14.104L8.208 11.312C8.11502 11.219 8.00465 11.1453 7.88317 11.095C7.76169 11.0447 7.63149 11.0188 7.5 11.0188C7.36851 11.0188 7.23831 11.0447 7.11683 11.095C6.99535 11.1453 6.88498 11.219 6.792 11.312C6.69902 11.405 6.62527 11.5154 6.57495 11.6369C6.52463 11.7583 6.49874 11.8885 6.49874 12.02C6.49874 12.1515 6.52463 12.2817 6.57495 12.4032C6.62527 12.5247 6.69902 12.635 6.792 12.728L10.292 16.228C10.3849 16.3211 10.4952 16.395 10.6167 16.4454C10.7382 16.4959 10.8685 16.5218 11 16.5218C11.1315 16.5218 11.2618 16.4959 11.3833 16.4454C11.5048 16.395 11.6151 16.3211 11.708 16.228L18.156 9.76002C18.3379 9.57116 18.4384 9.31841 18.4357 9.05621C18.4331 8.79401 18.3276 8.54333 18.1419 8.35818C17.9562 8.17303 17.7052 8.06821 17.443 8.06631C17.1808 8.06441 16.9283 8.16558 16.74 8.34802Z" fill="#1C0F61"/>
</svg>
