<svg width="11" height="11" viewBox="0 0 11 11" fill="none" xmlns="http://www.w3.org/2000/svg">
<path fill-rule="evenodd" clip-rule="evenodd" d="M0.907652 1.03161C1.23309 0.706177 1.76073 0.706177 2.08616 1.03161L5.66357 4.60903L9.24098 1.03161C9.56642 0.706177 10.0941 0.706177 10.4195 1.03161C10.7449 1.35705 10.7449 1.88469 10.4195 2.21013L6.84208 5.78754L10.4195 9.36495C10.7449 9.69038 10.7449 10.218 10.4195 10.5435C10.0941 10.8689 9.56642 10.8689 9.24098 10.5435L5.66357 6.96605L2.08616 10.5435C1.76073 10.8689 1.23309 10.8689 0.907652 10.5435C0.582215 10.218 0.582215 9.69038 0.907652 9.36495L4.48506 5.78754L0.907652 2.21013C0.582215 1.88469 0.582215 1.35705 0.907652 1.03161Z" fill="#1C0F61"/>
</svg>
