<svg width="48" height="48" viewBox="0 0 48 48" fill="none" xmlns="http://www.w3.org/2000/svg">
<circle opacity="0.1" cx="24" cy="24" r="24" fill="#FF7742"/>
<path d="M21.2291 14.3335C21.3055 14.489 21.356 14.6555 21.3786 14.8267L21.7962 21.0366L22.0035 24.1578C22.0057 24.4788 22.0561 24.7977 22.153 25.1043C22.4034 25.699 23.0057 26.0771 23.6611 26.0507L33.647 25.3975C34.0794 25.3904 34.497 25.5521 34.8079 25.8471C35.0669 26.093 35.2342 26.4146 35.2868 26.7605L35.3045 26.9705C34.8913 32.6926 30.6887 37.4652 24.9785 38.6972C19.2683 39.9292 13.4128 37.3267 10.5911 32.3026C9.77758 30.8429 9.26948 29.2386 9.09657 27.5837C9.02434 27.0938 8.99254 26.599 9.00147 26.104C8.99255 19.9693 13.3612 14.6656 19.4765 13.3871C20.2125 13.2725 20.934 13.6621 21.2291 14.3335Z" fill="#FF7742"/>
<path opacity="0.4" d="M25.3049 9.00123C32.1447 9.17524 37.8933 14.0937 38.9998 20.7184L38.9893 20.7673L38.9591 20.8384L38.9633 21.0335C38.9476 21.2921 38.8478 21.5408 38.6758 21.7417C38.4966 21.951 38.2518 22.0935 37.9822 22.1489L37.8178 22.1714L26.2967 22.9179C25.9134 22.9557 25.5319 22.8321 25.2469 22.5779C25.0094 22.3661 24.8575 22.0801 24.8147 21.772L24.0413 10.2676C24.0279 10.2287 24.0279 10.1865 24.0413 10.1476C24.0519 9.83051 24.1915 9.53076 24.4289 9.31534C24.6663 9.09993 24.9818 8.9868 25.3049 9.00123Z" fill="#FF7742"/>
</svg>
