<svg width="21" height="22" viewBox="0 0 21 22" fill="none" xmlns="http://www.w3.org/2000/svg">
<path fill-rule="evenodd" clip-rule="evenodd" d="M6.982 5.3035C6.95 5.3035 6.918 5.3075 6.886 5.3155C3.916 6.0465 1.5 9.2645 1.5 12.4885C1.5 16.5445 4.8 19.8445 8.857 19.8445C12.514 19.8445 15.57 17.2395 16.124 13.6495C16.128 13.6195 16.142 13.5325 16.06 13.4355C15.982 13.3445 15.858 13.2905 15.728 13.2905C14.317 13.2905 13.24 13.3225 12.399 13.3465C10.363 13.4075 9.521 13.4305 8.689 12.8135C7.435 11.8845 7.329 10.2885 7.329 5.5945C7.329 5.5105 7.293 5.4405 7.221 5.3845C7.154 5.3315 7.069 5.3035 6.982 5.3035ZM8.857 21.3445C3.973 21.3445 0 17.3715 0 12.4885C0 8.6165 2.928 4.7445 6.527 3.8585C7.089 3.7215 7.693 3.8495 8.147 4.2035C8.58 4.5435 8.829 5.0505 8.829 5.5945C8.829 9.9795 8.977 11.1595 9.582 11.6085C9.979 11.9015 10.523 11.8985 12.356 11.8475C13.208 11.8225 14.299 11.7905 15.728 11.7905C16.298 11.7905 16.835 12.0345 17.199 12.4595C17.537 12.8545 17.685 13.3705 17.607 13.8785C16.939 18.2035 13.259 21.3445 8.857 21.3445Z" fill="#685F96"/>
<mask id="mask0" mask-type="alpha" maskUnits="userSpaceOnUse" x="10" y="0" width="11" height="11">
<path fill-rule="evenodd" clip-rule="evenodd" d="M10.4736 0.000488281H20.8926V10.2898H10.4736V0.000488281Z" fill="white"/>
</mask>
<g mask="url(#mask0)">
<path fill-rule="evenodd" clip-rule="evenodd" d="M12.0104 1.50174C11.9004 4.02074 12.0634 7.27474 12.1394 8.56374C12.1434 8.64074 12.1994 8.69674 12.2754 8.70074C13.3034 8.75974 16.8454 8.92374 19.3924 8.54874C19.3984 7.14474 18.4374 5.24074 16.9904 3.79474C15.5064 2.31274 13.7504 1.50174 12.0324 1.50174H12.0104ZM15.3144 10.2897C14.0044 10.2897 12.8514 10.2367 12.1884 10.1987C11.3544 10.1497 10.6904 9.48474 10.6424 8.65074C10.5644 7.32874 10.3954 3.96974 10.5154 1.37174C10.5484 0.616742 11.1584 0.0157416 11.9044 0.00274156C14.0414 -0.0592584 16.2464 0.932742 18.0504 2.73374C19.8084 4.49074 20.9244 6.79974 20.8924 8.61674C20.8804 9.32574 20.3654 9.91774 19.6694 10.0227C18.3114 10.2277 16.7214 10.2897 15.3144 10.2897Z" fill="#685F96"/>
</g>
</svg>
