<svg width="48" height="48" viewBox="0 0 48 48" fill="none" xmlns="http://www.w3.org/2000/svg">
<circle opacity="0.1" cx="24" cy="24" r="24" fill="#9B51E0"/>
<path fill-rule="evenodd" clip-rule="evenodd" d="M28.8642 13.1063C28.8642 16.4378 31.5689 19.1385 34.9052 19.1385C35.2726 19.1367 35.639 19.1015 36 19.0332V30.9922C36 36.0234 33.0322 39 27.9936 39H17.0195C11.9678 39 9 36.0234 9 30.9922V20.0341C9 15.0029 11.9678 12 17.0195 12H28.9697C28.8988 12.3645 28.8635 12.735 28.8642 13.1063ZM25.7251 28.3449L30.0118 22.8132V22.7868C30.3788 22.2937 30.2852 21.5983 29.8008 21.2195C29.5663 21.0385 29.2684 20.9602 28.9751 21.0024C28.6818 21.0446 28.4181 21.2037 28.2444 21.4434L24.6303 26.0927L20.515 22.8527C20.2801 22.6696 19.9812 22.5888 19.6858 22.6285C19.3905 22.6681 19.1236 22.8249 18.9454 23.0634L14.5135 28.7795C14.3578 28.9737 14.2739 29.2156 14.2761 29.4644C14.2504 29.9672 14.5679 30.424 15.0487 30.5757C15.5294 30.7275 16.0522 30.536 16.3206 30.1098L20.027 25.3156L24.1423 28.5424C24.3763 28.7311 24.6772 28.8167 24.9757 28.7794C25.2742 28.7422 25.5447 28.5853 25.7251 28.3449Z" fill="#9B51E0"/>
<circle opacity="0.4" cx="35.25" cy="12.75" r="3.75" fill="#9B51E0"/>
</svg>
