<svg width="21" height="21" viewBox="0 0 21 21" fill="none" xmlns="http://www.w3.org/2000/svg">
<path fill-rule="evenodd" clip-rule="evenodd" d="M5.21653 14.0026C5.05653 14.0026 4.89553 13.9516 4.75953 13.8476C4.43153 13.5946 4.36953 13.1236 4.62253 12.7956L7.61553 8.90562C7.73753 8.74662 7.91853 8.64362 8.11653 8.61862C8.31853 8.59262 8.51653 8.64862 8.67353 8.77362L11.4935 10.9886L13.9605 7.80562C14.2145 7.47662 14.6845 7.41562 15.0125 7.67162C15.3405 7.92562 15.4005 8.39662 15.1465 8.72362L12.2165 12.5036C12.0945 12.6616 11.9145 12.7646 11.7165 12.7886C11.5165 12.8156 11.3185 12.7576 11.1605 12.6346L8.34253 10.4206L5.81153 13.7096C5.66353 13.9016 5.44153 14.0026 5.21653 14.0026Z" fill="#685F96"/>
<mask id="mask0" mask-type="alpha" maskUnits="userSpaceOnUse" x="15" y="0" width="6" height="6">
<path fill-rule="evenodd" clip-rule="evenodd" d="M15.2954 0H20.6394V5.3449H15.2954V0Z" fill="white"/>
</mask>
<g mask="url(#mask0)">
<path fill-rule="evenodd" clip-rule="evenodd" d="M17.9674 1.5C17.3214 1.5 16.7954 2.025 16.7954 2.672C16.7954 3.318 17.3214 3.845 17.9674 3.845C18.6134 3.845 19.1394 3.318 19.1394 2.672C19.1394 2.025 18.6134 1.5 17.9674 1.5ZM17.9674 5.345C16.4944 5.345 15.2954 4.146 15.2954 2.672C15.2954 1.198 16.4944 0 17.9674 0C19.4414 0 20.6394 1.198 20.6394 2.672C20.6394 4.146 19.4414 5.345 17.9674 5.345Z" fill="#685F96"/>
</g>
<mask id="mask1" mask-type="alpha" maskUnits="userSpaceOnUse" x="0" y="0" width="20" height="21">
<path fill-rule="evenodd" clip-rule="evenodd" d="M0 0.841797H19.8619V20.7028H0V0.841797Z" fill="white"/>
</mask>
<g mask="url(#mask1)">
<path fill-rule="evenodd" clip-rule="evenodd" d="M14.233 20.7028H5.629C2.262 20.7028 0 18.3378 0 14.8178V6.7358C0 3.2108 2.262 0.841797 5.629 0.841797H12.897C13.311 0.841797 13.647 1.1778 13.647 1.5918C13.647 2.0058 13.311 2.3418 12.897 2.3418H5.629C3.121 2.3418 1.5 4.0658 1.5 6.7358V14.8178C1.5 17.5228 3.082 19.2028 5.629 19.2028H14.233C16.741 19.2028 18.362 17.4818 18.362 14.8178V7.7788C18.362 7.3648 18.698 7.0288 19.112 7.0288C19.526 7.0288 19.862 7.3648 19.862 7.7788V14.8178C19.862 18.3378 17.6 20.7028 14.233 20.7028Z" fill="#685F96"/>
</g>
</svg>
