<svg width="48" height="48" viewBox="0 0 48 48" fill="none" xmlns="http://www.w3.org/2000/svg">
<circle opacity="0.1" cx="24" cy="24" r="24" fill="#00BA88"/>
<path fill-rule="evenodd" clip-rule="evenodd" d="M38.9947 18.5627H32.6427C29.6867 18.5679 27.292 20.9027 27.2867 23.7848C27.2827 26.6735 29.68 29.0187 32.6427 29.0226H39V29.4815C39 34.5204 35.9453 37.5 30.776 37.5H17.2253C12.0547 37.5 9 34.5204 9 29.4815V18.5068C9 13.4679 12.0547 10.5 17.2253 10.5H30.7707C35.94 10.5 38.9947 13.4679 38.9947 18.5068V18.5627ZM16.1092 18.551H24.5692H24.5746H24.5852C25.2185 18.5484 25.7306 18.0453 25.7279 17.4265C25.7252 16.809 25.2079 16.3098 24.5746 16.3124H16.1092C15.4799 16.315 14.9692 16.8129 14.9666 17.4278C14.9639 18.0453 15.4759 18.5484 16.1092 18.551Z" fill="#00BA88"/>
<path opacity="0.4" d="M30.0561 24.4446C30.3698 25.8714 31.6207 26.8752 33.0489 26.8491H37.9238C38.518 26.8491 39 26.357 39 25.7487V21.9513C38.9987 21.3443 38.518 20.8509 37.9238 20.8496H32.9341C31.3096 20.8548 29.9975 22.2033 30 23.865C30 24.0595 30.0191 24.254 30.0561 24.4446Z" fill="#00BA88"/>
<circle cx="33" cy="23.8496" r="1.5" fill="#00BA88"/>
</svg>
