<svg width="20" height="20" viewBox="0 0 20 20" fill="none" xmlns="http://www.w3.org/2000/svg">
<path opacity="0.4" d="M10.02 0C4.21 0 0 4.74 0 10C0 11.68 0.49 13.41 1.35 14.99C1.51 15.25 1.53 15.58 1.42 15.89L0.75 18.13C0.6 18.67 1.06 19.07 1.57 18.91L3.59 18.31C4.14 18.13 4.57 18.36 5.081 18.67C6.541 19.53 8.36 19.97 10 19.97C14.96 19.97 20 16.14 20 9.97C20 4.65 15.7 0 10.02 0Z" fill="#1C0F61"/>
<path fill-rule="evenodd" clip-rule="evenodd" d="M9.98024 11.2901C9.27024 11.2801 8.70024 10.7101 8.70024 10.0001C8.70024 9.30011 9.28024 8.72011 9.98024 8.73011C10.6902 8.73011 11.2602 9.30011 11.2602 10.0101C11.2602 10.7101 10.6902 11.2901 9.98024 11.2901ZM5.36984 11.2901C4.66984 11.2901 4.08984 10.7101 4.08984 10.0101C4.08984 9.30011 4.65984 8.73011 5.36984 8.73011C6.07984 8.73011 6.64984 9.30011 6.64984 10.0101C6.64984 10.7101 6.07984 11.2801 5.36984 11.2901ZM13.31 10.0101C13.31 10.7101 13.88 11.2901 14.59 11.2901C15.3 11.2901 15.87 10.7101 15.87 10.0101C15.87 9.30011 15.3 8.73011 14.59 8.73011C13.88 8.73011 13.31 9.30011 13.31 10.0101Z" fill="#1C0F61"/>
</svg>
