<svg width="184" height="157" viewBox="0 0 184 157" fill="none" xmlns="http://www.w3.org/2000/svg">
<path d="M124.487 11.5813C124.256 11.5813 124.032 11.4501 123.91 11.2157L122.865 9.20332L121.011 10.3372C120.692 10.533 120.289 10.4102 120.11 10.0643L118.624 7.20284C118.445 6.85762 118.557 6.41907 118.876 6.22401L120.728 5.08799L119.683 3.07488C119.597 2.90929 119.575 2.71282 119.622 2.52898C119.67 2.34514 119.782 2.18937 119.935 2.09605L122.57 0.482193C122.889 0.285723 123.292 0.409218 123.472 0.755144L124.517 2.76755L126.371 1.63364C126.689 1.43717 127.093 1.56067 127.272 1.90659L128.758 4.76873C128.844 4.93503 128.866 5.1315 128.819 5.31463C128.772 5.49847 128.659 5.65424 128.507 5.74757L126.653 6.88218L127.698 8.89599C127.878 9.24191 127.764 9.67976 127.447 9.87482L124.811 11.4887C124.709 11.5518 124.597 11.5813 124.487 11.5813ZM123.116 7.50597C123.347 7.50597 123.571 7.63718 123.693 7.87154L124.738 9.88395L126.22 8.97598L125.176 6.96147C125.09 6.79517 125.068 6.5987 125.115 6.41486C125.162 6.23172 125.275 6.07595 125.428 5.98263L127.281 4.84872L126.445 3.23837L124.591 4.37228C124.272 4.56805 123.869 4.44456 123.69 4.09933L122.644 2.08692L121.161 2.99489L122.206 5.0073C122.386 5.35252 122.273 5.79107 121.955 5.98614L120.102 7.12215L120.938 8.7325L122.791 7.59859C122.894 7.53544 123.006 7.50597 123.116 7.50597Z" fill="#EC6F5E"/>
<path d="M23.7621 43.3306C22.0133 43.3306 20.5901 41.7855 20.5901 39.886C20.5901 37.9865 22.0133 36.4414 23.7621 36.4414C25.5109 36.4414 26.9335 37.9865 26.9335 39.886C26.9335 41.7855 25.5109 43.3306 23.7621 43.3306ZM23.7621 37.8785C22.7427 37.8785 21.9132 38.7787 21.9132 39.886C21.9132 40.9932 22.7427 41.8935 23.7621 41.8935C24.7816 41.8935 25.6104 40.9932 25.6104 39.886C25.6104 38.7787 24.7816 37.8785 23.7621 37.8785Z" fill="#DCEAF7"/>
<path d="M9.45172 54.5407L7.22512 52.1424L8.01086 51.2825L9.4321 49.7255L7.01738 47.127L5.59614 48.6838L4.81056 49.5438L2.58395 47.1483L0.190186 49.771L2.41679 52.1665L0.211061 54.5861L2.62574 57.1847L4.8326 54.7678L7.05921 57.1634L9.45172 54.5407Z" fill="#EC6F5E"/>
<path d="M183.998 82.8292L181.817 80.4798L182.587 79.6374L183.979 78.1122L181.614 75.5664L180.221 77.0917L179.452 77.9341L177.27 75.5874L174.925 78.1566L177.107 80.5034L174.946 82.8738L177.311 85.4194L179.473 83.0517L181.654 85.3985L183.998 82.8292Z" fill="#EC6F5E"/>
<path d="M78.1561 107.76C77.9829 107.4 77.6916 107.134 77.3343 107.012C77.1961 106.965 77.0539 106.941 76.9131 106.941C76.6902 106.941 76.4699 107 76.267 107.115C75.935 107.303 75.6901 107.619 75.5777 108.007C75.466 108.395 75.4996 108.806 75.6727 109.166C75.8458 109.527 76.1372 109.793 76.4945 109.915C76.8491 110.035 77.2296 110 77.5617 109.812C77.8938 109.624 78.1386 109.307 78.2504 108.919C78.3628 108.532 78.3292 108.12 78.1561 107.76V107.76Z" fill="#FF7742"/>
<path d="M145.084 106.539C144.71 106.539 144.358 106.697 144.094 106.985C143.829 107.272 143.683 107.654 143.683 108.06C143.683 108.466 143.829 108.848 144.094 109.136C144.623 109.711 145.545 109.711 146.074 109.136C146.339 108.848 146.485 108.466 146.485 108.06C146.485 107.654 146.339 107.272 146.074 106.985C145.809 106.697 145.458 106.539 145.084 106.539Z" fill="#FF7742"/>
<path d="M110.629 101.41C110.316 101.41 109.999 101.489 109.704 101.657C109.229 101.926 108.879 102.38 108.718 102.935C108.558 103.49 108.605 104.08 108.853 104.596C109.101 105.112 109.519 105.492 110.03 105.667C110.543 105.843 111.085 105.79 111.559 105.521C112.54 104.965 112.921 103.646 112.41 102.581C112.053 101.837 111.353 101.41 110.629 101.41Z" fill="#1C0F61"/>
<path d="M136.281 96.3452C136.368 96.3801 136.451 96.4315 136.521 96.5077L137.079 97.1141C136.997 96.6796 136.905 96.2494 136.805 95.8223C136.638 95.9814 136.47 96.1396 136.317 96.3056L136.281 96.3452Z" fill="#1C0F61"/>
<path d="M137.435 99.4731C137.346 98.676 137.226 97.8896 137.079 97.1135L136.521 96.5071C136.451 96.431 136.368 96.3796 136.281 96.3446L136.317 96.305C136.47 96.1391 136.638 95.9808 136.805 95.8217C136.686 95.3111 136.555 94.806 136.411 94.3064C136.06 93.0817 135.645 91.887 135.155 90.737C134.813 89.9355 134.436 89.1559 134.031 88.3955C129.366 79.625 120.642 73.7207 110.645 73.7207C100.579 73.7207 91.8063 79.7095 87.1652 88.5814C86.2192 90.3895 85.4393 92.3131 84.8612 94.335C84.868 94.341 84.8756 94.3461 84.8824 94.3522L84.8431 94.404C84.0695 97.1344 83.6514 100.034 83.6514 103.04C83.6514 110.096 85.9477 116.569 89.7716 121.629C91.2261 123.553 92.9044 125.27 94.7593 126.739L94.739 126.693L98.1497 120.593C93.1709 116.403 90.2083 109.89 90.2083 103.04C90.2083 90.8003 99.3762 80.8428 110.645 80.8428C121.914 80.8428 131.082 90.8003 131.082 103.04C131.082 110.406 127.758 117.207 122.175 121.357L125.938 127.197C127.939 125.699 129.745 123.916 131.306 121.902C135.256 116.803 137.639 110.225 137.639 103.04C137.639 101.832 137.566 100.643 137.435 99.4731Z" fill="#1C0F61"/>
<path opacity="0.67" d="M106.06 30.6113C73.9811 30.6113 26.0906 68.358 26.0906 103.202C26.0906 138.045 73.9811 156.792 106.06 156.792C122.528 156.792 137.394 144.478 147.964 127.781C147.054 127.919 146.125 127.996 145.179 127.996C139.787 127.996 134.897 125.674 131.305 121.906C129.744 123.921 127.939 125.704 125.937 127.201L125.939 127.204L124.855 128.028L124.829 127.988C120.707 130.759 115.849 132.363 110.645 132.363C105.15 132.363 100.041 130.575 95.7772 127.513C95.4319 127.265 95.0927 127.008 94.7587 126.743C92.9038 125.274 91.2256 123.558 89.771 121.633C89.7179 121.684 89.6648 121.735 89.6111 121.786C86.1101 125.084 81.4934 127.088 76.4336 127.088C72.2964 127.088 68.4568 125.746 65.2798 123.455L65.2397 123.534L64.0808 122.839L64.1967 122.611C59.5885 118.779 56.6258 112.839 56.6258 106.163C56.6258 94.6066 65.494 85.2383 76.4336 85.2383C80.3909 85.2383 84.071 86.4736 87.1646 88.5857C91.8057 79.7138 100.579 73.725 110.645 73.725C120.641 73.725 129.365 79.6293 134.031 88.3998C135.093 87.6227 136.225 86.9492 137.419 86.4023C139.804 85.3097 142.427 84.7056 145.179 84.7056C152.137 84.7056 158.26 88.5676 161.833 94.4203C163.337 87.8667 164.147 81.3609 164.147 75.224C164.147 40.3803 138.141 30.6113 106.06 30.6113Z" fill="white"/>
<path d="M156.852 123.893L157.636 123.254C157.381 123.475 157.116 123.683 156.85 123.891L156.852 123.893Z" fill="#FF7742"/>
<path d="M161.833 94.414C158.26 88.5613 152.137 84.6992 145.18 84.6992C142.427 84.6992 139.805 85.3034 137.419 86.3959C136.225 86.9428 135.093 87.6163 134.031 88.3934C134.436 89.1538 134.813 89.9334 135.155 90.7349C135.645 91.8849 136.06 93.0796 136.411 94.3043C138.259 92.7059 140.634 91.5336 143.009 91.0978C143.785 90.9561 144.579 90.8838 145.369 90.8838C152.358 90.8838 158.157 96.4557 159.238 103.721C159.356 104.518 159.435 105.329 159.435 106.162C159.435 110.748 157.594 114.985 154.367 117.9L157.904 123.021C162.324 119.051 165.141 113.055 165.141 106.344C165.141 101.935 163.922 97.835 161.833 94.414Z" fill="#FF7742"/>
<path d="M153.031 118.355L153.04 118.347L152.537 117.627L153.064 117.192C153.565 116.779 154.021 116.322 154.453 115.845C156.395 113.706 157.637 110.977 157.998 107.997H157.739H154.971C154.605 107.997 154.309 107.676 154.309 107.279C154.309 106.882 154.605 106.56 154.971 106.56H158.065C158.078 106.56 158.088 106.568 158.101 106.568C158.105 106.432 158.112 106.296 158.112 106.159C158.112 102.996 157.119 100.086 155.469 97.7525L153.864 99.7449C153.733 99.9077 153.55 99.9905 153.366 99.9905C153.211 99.9905 153.056 99.9323 152.931 99.813C152.655 99.5513 152.628 99.0973 152.868 98.7991L154.602 96.6468C152.421 94.1506 149.398 92.5432 146.03 92.3541V94.9595C146.03 95.3566 145.734 95.678 145.369 95.678C145.003 95.678 144.707 95.3566 144.707 94.9595V92.3477C144.211 92.3754 143.716 92.4226 143.229 92.512C140.913 92.9372 138.516 94.1843 136.805 95.8164C136.905 96.2436 136.997 96.6737 137.079 97.1082L138.208 98.3346C138.467 98.6152 138.467 99.0699 138.208 99.3506C138.079 99.4909 137.91 99.5611 137.74 99.5611C137.634 99.5611 137.532 99.5232 137.435 99.4678C137.566 100.637 137.639 101.826 137.639 103.034C137.639 110.22 135.256 116.797 131.306 121.896C134.898 125.664 139.787 127.986 145.18 127.986C146.125 127.986 147.054 127.91 147.965 127.772C151.254 127.274 154.279 125.901 156.85 123.886L153.157 118.538L153.031 118.355ZM141.529 116.857C140.96 116.857 140.498 116.356 140.498 115.737C140.498 115.119 140.96 114.617 141.529 114.617C142.099 114.617 142.56 115.119 142.56 115.737C142.56 116.356 142.099 116.857 141.529 116.857ZM145.084 111.01C144.356 111.01 143.672 110.703 143.158 110.144C142.644 109.585 142.36 108.843 142.36 108.052C142.36 107.261 142.644 106.519 143.158 105.96C143.672 105.401 144.356 105.094 145.084 105.094C145.585 105.094 146.06 105.249 146.478 105.522L148.991 102.792C149.25 102.512 149.668 102.512 149.927 102.792C150.185 103.073 150.185 103.528 149.927 103.808L147.414 106.538C147.665 106.992 147.808 107.508 147.808 108.052C147.808 108.842 147.525 109.585 147.01 110.144C146.496 110.703 145.811 111.01 145.084 111.01ZM147.146 115.737C147.146 115.119 147.607 114.617 148.177 114.617C148.746 114.617 149.208 115.119 149.208 115.737C149.208 116.356 148.746 116.857 148.177 116.857C147.607 116.857 147.146 116.356 147.146 115.737Z" fill="#FF7742"/>
<path d="M148.991 102.794L146.478 105.524C146.06 105.251 145.585 105.096 145.084 105.096C144.357 105.096 143.672 105.403 143.158 105.963C142.644 106.521 142.36 107.263 142.36 108.054C142.36 108.845 142.644 109.587 143.158 110.146C143.672 110.705 144.357 111.013 145.084 111.013C145.811 111.013 146.496 110.705 147.01 110.146C147.525 109.587 147.808 108.844 147.808 108.054C147.808 107.51 147.665 106.994 147.414 106.54L149.927 103.811C150.185 103.53 150.185 103.075 149.927 102.794C149.668 102.514 149.25 102.514 148.991 102.794ZM146.074 109.13C145.545 109.705 144.623 109.705 144.094 109.13C143.829 108.842 143.683 108.461 143.683 108.054C143.683 107.648 143.829 107.266 144.094 106.979C144.359 106.691 144.71 106.533 145.084 106.533C145.458 106.533 145.81 106.691 146.074 106.979C146.339 107.266 146.485 107.648 146.485 108.054C146.485 108.461 146.339 108.842 146.074 109.13Z" fill="white"/>
<path d="M159.435 106.163C159.435 105.33 159.357 104.519 159.238 103.722C158.157 96.4566 152.359 90.8848 145.369 90.8848C144.579 90.8848 143.785 90.957 143.009 91.0988C140.634 91.5345 138.259 92.7068 136.412 94.3053C136.555 94.8049 136.686 95.3099 136.805 95.8205C138.517 94.1884 140.913 92.9414 143.229 92.5162C143.716 92.4267 144.211 92.3795 144.707 92.3518V94.9636C144.707 95.3608 145.003 95.6821 145.369 95.6821C145.735 95.6821 146.03 95.3608 146.03 94.9636V92.3583C149.399 92.5474 152.421 94.1548 154.602 96.651L152.868 98.8032C152.628 99.1014 152.656 99.5554 152.931 99.8171C153.056 99.9364 153.211 99.9947 153.366 99.9947C153.55 99.9947 153.733 99.9119 153.864 99.7491L155.469 97.7567C157.119 100.09 158.112 103 158.112 106.163C158.112 106.3 158.105 106.436 158.101 106.573C158.088 106.572 158.078 106.564 158.065 106.564H154.971C154.605 106.564 154.309 106.886 154.309 107.283C154.309 107.68 154.605 108.002 154.971 108.002H157.739H157.998C157.637 110.982 156.395 113.71 154.453 115.849C154.021 116.326 153.565 116.783 153.064 117.196L152.537 117.631L153.04 118.351L153.031 118.359L153.157 118.542L156.852 123.892L157.636 123.253C157.725 123.175 157.816 123.101 157.904 123.022L154.368 117.901C157.595 114.986 159.435 110.749 159.435 106.163Z" fill="white"/>
<path d="M83.6517 103.035C83.6517 100.029 84.0699 97.1298 84.8435 94.3994L84.0429 95.4577C81.9443 93.5856 79.3304 92.5036 76.6225 92.3496V94.9602C76.6225 95.3573 76.3267 95.6787 75.961 95.6787C75.5953 95.6787 75.2995 95.3573 75.2995 94.9602V92.3549C71.7631 92.5534 68.6088 94.3169 66.409 97.0282L68.4269 99.1043C68.6924 99.3765 68.7034 99.8319 68.4521 100.12C68.3223 100.269 68.1472 100.344 67.9721 100.344C67.8087 100.344 67.6452 100.279 67.5173 100.147L65.5824 98.1565C64.0991 100.419 63.2173 103.177 63.2173 106.16C63.2173 106.799 63.2612 107.43 63.3386 108.051H65.4907C65.8563 108.051 66.1522 108.373 66.1522 108.77C66.1522 109.167 65.8563 109.488 65.4907 109.488H63.5867C64.2768 112.554 65.9156 115.276 68.3145 117.233L68.2867 117.527L65.2807 123.446C68.4578 125.737 72.2973 127.079 76.4345 127.079C81.4943 127.079 86.111 125.075 89.6121 121.777C89.6657 121.726 89.7188 121.675 89.772 121.624C85.9481 116.565 83.6517 110.091 83.6517 103.035ZM73.3948 116.858C72.8253 116.858 72.3635 116.357 72.3635 115.738C72.3635 115.12 72.8253 114.618 73.3948 114.618C73.9643 114.618 74.4259 115.12 74.4259 115.738C74.4259 116.357 73.9643 116.858 73.3948 116.858ZM78.1737 111.078C77.7796 111.302 77.35 111.415 76.9171 111.415C76.6426 111.415 76.3667 111.369 76.0973 111.277C75.4035 111.041 74.8362 110.523 74.4997 109.822C74.1631 109.122 74.0978 108.322 74.3162 107.567C74.4659 107.049 74.745 106.603 75.1102 106.252L73.4667 102.829C73.298 102.477 73.4234 102.044 73.747 101.86C74.0739 101.675 74.4706 101.813 74.6399 102.164L76.2837 105.587C76.758 105.463 77.255 105.471 77.7318 105.633C78.4256 105.87 78.9928 106.386 79.3294 107.087C79.666 107.788 79.7313 108.588 79.5129 109.342C79.2945 110.096 78.8191 110.712 78.1737 111.078ZM80.0427 116.858C79.4732 116.858 79.0116 116.357 79.0116 115.738C79.0116 115.12 79.4732 114.618 80.0427 114.618C80.6121 114.618 81.0737 115.12 81.0737 115.738C81.0737 116.357 80.6121 116.858 80.0427 116.858Z" fill="#FF7742"/>
<path d="M61.8937 106.165C61.8937 97.7403 68.2042 90.8862 75.9605 90.8862C79.1992 90.8862 82.3584 92.1114 84.8611 94.3354C85.4391 92.3135 86.2191 90.3898 87.165 88.5817C84.0715 86.4697 80.3913 85.2344 76.434 85.2344C65.4944 85.2344 56.6262 94.6027 56.6262 106.159C56.6262 112.835 59.5889 118.775 64.1972 122.607L66.7064 117.666C63.6374 114.762 61.8937 110.633 61.8937 106.165Z" fill="#FF7742"/>
<path d="M68.3141 117.236C65.9152 115.279 64.2764 112.557 63.5863 109.492H65.4903C65.8559 109.492 66.1518 109.171 66.1518 108.773C66.1518 108.376 65.8559 108.055 65.4903 108.055H63.3382C63.2608 107.434 63.2169 106.803 63.2169 106.163C63.2169 103.18 64.0987 100.422 65.582 98.1599L67.5169 100.15C67.6448 100.282 67.8083 100.348 67.9717 100.348C68.1468 100.348 68.3219 100.273 68.4517 100.123C68.703 99.8354 68.692 99.38 68.4265 99.1077L66.4086 97.0317C68.6084 94.3204 71.7626 92.5569 75.299 92.3583V94.9636C75.299 95.3608 75.5949 95.6821 75.9606 95.6821C76.3262 95.6821 76.6221 95.3608 76.6221 94.9636V92.353C79.33 92.507 81.9438 93.589 84.0425 95.4611L84.8431 94.4028C84.8495 94.38 84.8547 94.3567 84.8612 94.3339C82.3584 92.1099 79.1993 90.8848 75.9606 90.8848C68.2043 90.8848 61.8938 97.7388 61.8938 106.163C61.8938 110.631 63.6374 114.761 66.7064 117.665L64.1972 122.605C64.5497 122.898 64.9093 123.182 65.2803 123.449L68.2863 117.53L68.3141 117.236Z" fill="white"/>
<path d="M79.3289 107.089C78.9923 106.388 78.4251 105.871 77.7312 105.634C77.2545 105.472 76.7575 105.465 76.2831 105.588L74.6393 102.166C74.47 101.815 74.0734 101.677 73.7465 101.861C73.4228 102.045 73.2975 102.479 73.4661 102.831L75.1096 106.253C74.7444 106.605 74.4653 107.05 74.3156 107.569C74.0973 108.323 74.1625 109.124 74.4991 109.824C74.8357 110.525 75.4029 111.042 76.0968 111.278C76.3662 111.37 76.642 111.416 76.9166 111.416C77.3494 111.416 77.779 111.303 78.1731 111.079C78.8185 110.714 79.294 110.097 79.5124 109.344C79.7307 108.59 79.6655 107.789 79.3289 107.089ZM78.25 108.912C78.1382 109.3 77.8934 109.617 77.5613 109.805C77.2293 109.993 76.8487 110.028 76.4941 109.908C76.1368 109.786 75.8454 109.52 75.6723 109.159C75.4992 108.799 75.4656 108.387 75.5773 108C75.6897 107.612 75.9346 107.296 76.2667 107.108C76.4695 106.993 76.6898 106.934 76.9127 106.934C77.0535 106.934 77.1957 106.957 77.3339 107.005C77.6912 107.127 77.9825 107.392 78.1557 107.752V107.753C78.3288 108.113 78.3624 108.525 78.25 108.912Z" fill="white"/>
<path d="M73.394 114.623C72.8245 114.623 72.3628 115.125 72.3628 115.743C72.3628 116.361 72.8245 116.863 73.394 116.863C73.9635 116.863 74.4251 116.361 74.4251 115.743C74.4251 115.125 73.9635 114.623 73.394 114.623Z" fill="white"/>
<path d="M80.0424 116.863C80.6119 116.863 81.0735 116.362 81.0735 115.743C81.0735 115.124 80.6119 114.623 80.0424 114.623C79.4729 114.623 79.0112 115.124 79.0112 115.743C79.0112 116.362 79.4729 116.863 80.0424 116.863Z" fill="white"/>
<path d="M120.558 120.981L120.481 120.853L121.036 120.462C122.002 119.781 122.896 119.013 123.718 118.177L121.692 115.976C121.433 115.695 121.433 115.24 121.692 114.96C121.95 114.679 122.369 114.679 122.627 114.96L124.655 117.162C127.773 113.522 129.597 108.761 129.741 103.681H126.929C126.563 103.681 126.267 103.359 126.267 102.962C126.267 102.565 126.563 102.244 126.929 102.244H129.741C129.561 97.0719 127.633 92.3805 124.579 88.8452L122.627 90.9643C122.498 91.1046 122.329 91.1748 122.159 91.1748C121.99 91.1748 121.821 91.1046 121.692 90.9643C121.433 90.6836 121.433 90.229 121.692 89.9483L123.642 87.831C120.379 84.539 116.061 82.4698 111.307 82.293V85.2765C111.307 85.6737 111.011 85.995 110.645 85.995C110.28 85.995 109.984 85.6737 109.984 85.2765V82.293C105.229 82.4698 100.911 84.539 97.649 87.8308L99.5992 89.9483C99.8577 90.229 99.8577 90.6836 99.5992 90.9643C99.47 91.1046 99.3008 91.1748 99.1315 91.1748C98.9623 91.1748 98.793 91.1046 98.6638 90.9643L96.712 88.8451C93.6581 92.3803 91.7296 97.0717 91.55 102.244H94.3625C94.7281 102.244 95.024 102.565 95.024 102.962C95.024 103.359 94.7281 103.681 94.3625 103.681H91.5493C91.6955 108.707 93.5336 113.5 96.6449 117.152L98.6638 114.96C98.9222 114.679 99.3408 114.679 99.5992 114.96C99.8577 115.24 99.8577 115.695 99.5992 115.976L97.5736 118.176C98.1344 118.749 98.7286 119.289 99.3563 119.789L99.89 120.214L99.8577 120.384L95.7779 127.503C100.042 130.566 105.151 132.354 110.645 132.354C115.85 132.354 120.708 130.75 124.83 127.979L120.399 121.102L120.558 120.981ZM107.144 114.783C106.574 114.783 106.113 114.281 106.113 113.663C106.113 113.044 106.574 112.543 107.144 112.543C107.713 112.543 108.175 113.044 108.175 113.663C108.175 114.281 107.713 114.783 107.144 114.783ZM110.636 107.197C110.3 107.197 109.963 107.141 109.633 107.029C108.785 106.739 108.091 106.107 107.681 105.25C107.269 104.394 107.19 103.416 107.456 102.494C107.569 102.106 107.748 101.757 107.964 101.438L105.675 98.3446C105.447 98.0358 105.492 97.5832 105.777 97.3348C106.061 97.0851 106.478 97.1356 106.706 97.445L108.948 100.476C108.998 100.444 109.041 100.402 109.093 100.373C109.88 99.9254 110.781 99.8398 111.63 100.13C112.479 100.419 113.172 101.05 113.584 101.906V101.907C114.432 103.675 113.798 105.863 112.172 106.785C111.689 107.058 111.165 107.197 110.636 107.197ZM113.792 114.783C113.222 114.783 112.76 114.281 112.76 113.663C112.76 113.044 113.222 112.543 113.792 112.543C114.361 112.543 114.823 113.044 114.823 113.663C114.823 114.281 114.361 114.783 113.792 114.783Z" fill="#1C0F61"/>
<path d="M113.583 101.909V101.908C113.172 101.052 112.478 100.421 111.63 100.131C110.78 99.8417 109.88 99.9273 109.092 100.375C109.04 100.404 108.997 100.445 108.948 100.477L106.706 97.4468C106.477 97.1374 106.06 97.0869 105.776 97.3367C105.491 97.5851 105.446 98.0377 105.675 98.3464L107.963 101.44C107.747 101.758 107.568 102.108 107.456 102.496C107.189 103.417 107.268 104.396 107.68 105.252C108.091 106.109 108.785 106.741 109.633 107.03C109.962 107.143 110.3 107.199 110.636 107.199C111.164 107.199 111.689 107.06 112.171 106.787C113.798 105.865 114.432 103.676 113.583 101.909ZM111.559 105.513C111.085 105.782 110.542 105.835 110.03 105.659C109.519 105.485 109.101 105.104 108.853 104.588C108.605 104.072 108.557 103.482 108.717 102.927C108.878 102.372 109.228 101.918 109.704 101.649C109.999 101.481 110.316 101.402 110.628 101.402C111.353 101.402 112.053 101.829 112.41 102.573C112.921 103.638 112.539 104.957 111.559 105.513Z" fill="white"/>
<path d="M107.143 112.541C106.574 112.541 106.112 113.043 106.112 113.661C106.112 114.28 106.574 114.781 107.143 114.781C107.713 114.781 108.174 114.28 108.174 113.661C108.174 113.043 107.713 112.541 107.143 112.541Z" fill="white"/>
<path d="M113.791 112.541C113.222 112.541 112.76 113.043 112.76 113.661C112.76 114.28 113.222 114.781 113.791 114.781C114.361 114.781 114.823 114.28 114.823 113.661C114.823 113.043 114.361 112.541 113.791 112.541Z" fill="white"/>
<path d="M131.082 103.039C131.082 90.7993 121.914 80.8418 110.645 80.8418C99.3762 80.8418 90.2083 90.7993 90.2083 103.039C90.2083 109.889 93.1708 116.402 98.1497 120.592L94.7389 126.692L94.7593 126.738C95.0933 127.002 95.4324 127.259 95.7777 127.507L99.8574 120.388L99.8897 120.218L99.3561 119.793C98.7283 119.293 98.1341 118.753 97.5734 118.18L99.599 115.98C99.8574 115.699 99.8574 115.244 99.599 114.964C99.3406 114.683 98.922 114.683 98.6636 114.964L96.6447 117.156C93.5334 113.504 91.6953 108.711 91.5491 103.685H94.3623C94.7279 103.685 95.0238 103.364 95.0238 102.966C95.0238 102.569 94.7279 102.248 94.3623 102.248H91.5497C91.7293 97.0758 93.6579 92.3844 96.7117 88.8492L98.6636 90.9684C98.7928 91.1088 98.962 91.1789 99.1313 91.1789C99.3006 91.1789 99.4698 91.1088 99.599 90.9684C99.8574 90.6877 99.8574 90.2331 99.599 89.9524L97.6488 87.8349C100.911 84.5432 105.229 82.4739 109.983 82.2971V85.2806C109.983 85.6778 110.279 85.9991 110.645 85.9991C111.011 85.9991 111.306 85.6778 111.306 85.2806V82.2971C116.061 82.4739 120.379 84.5432 123.642 87.8351L121.692 89.9524C121.433 90.2331 121.433 90.6877 121.692 90.9684C121.821 91.1088 121.99 91.1789 122.159 91.1789C122.329 91.1789 122.498 91.1088 122.627 90.9684L124.579 88.8494C127.632 92.3846 129.561 97.076 129.741 102.248H126.928C126.563 102.248 126.267 102.569 126.267 102.966C126.267 103.364 126.563 103.685 126.928 103.685H129.741C129.597 108.765 127.773 113.526 124.655 117.166L122.627 114.964C122.369 114.683 121.95 114.683 121.692 114.964C121.433 115.244 121.433 115.699 121.692 115.98L123.718 118.181C122.895 119.017 122.002 119.785 121.036 120.466L120.481 120.857L120.558 120.986L120.399 121.106L124.83 127.983C125.206 127.73 125.575 127.468 125.938 127.196L122.175 121.356C127.758 117.206 131.082 110.405 131.082 103.039Z" fill="white"/>
<path d="M68.113 49.8263C67.8856 49.8263 67.6704 49.6986 67.549 49.4839L54.7671 26.8736L51.1803 44.5132C51.1009 44.9005 50.7533 45.1419 50.3915 45.0598C50.0349 44.9742 49.8095 44.5903 49.8883 44.203L53.8284 24.8275C53.8866 24.5419 54.0991 24.3223 54.3647 24.2738C54.6315 24.2268 54.897 24.3573 55.0385 24.6064L67.8572 47.2813L73.1075 24.7889C73.1611 24.5608 73.3142 24.3749 73.5171 24.2928C73.7212 24.2093 73.948 24.2409 74.1263 24.3756L87.4546 34.43L93.4331 21.0377C93.5468 20.7837 93.789 20.6461 94.0468 20.6328L105.844 20.9949C106.209 21.0061 106.497 21.3373 106.487 21.7338C106.477 22.1302 106.156 22.4453 105.807 22.4319L94.437 22.0825L88.3074 35.813C88.2234 36.0018 88.0671 36.1414 87.8797 36.1947C87.6937 36.2459 87.4934 36.2088 87.3351 36.0895L74.1554 26.1473L68.7545 49.2846C68.6886 49.5646 68.4754 49.7744 68.2125 49.8179C68.1795 49.8235 68.1459 49.8263 68.113 49.8263Z" fill="#EC6F5E"/>
<path d="M111.112 44.0097L111.109 44.0076C111.101 44.0013 111.097 43.9919 111.088 43.9859C111.08 43.9799 111.07 43.9797 111.062 43.9743L106.954 41.0494C106.649 40.8311 106.239 40.9245 106.038 41.2564C105.838 41.5882 105.923 42.0331 106.229 42.2506L109.039 44.2511L47.3499 57.7308L39.46 15.1343L42.0834 17.0014C42.1952 17.0814 42.3205 17.1193 42.4452 17.1193C42.6609 17.1193 42.8722 17.0049 42.9995 16.7944C43.1991 16.4625 43.1138 16.0169 42.8082 15.7994L38.9123 13.0267C38.8921 13.0083 38.8797 12.9835 38.8571 12.9674C38.5522 12.7492 38.1413 12.8432 37.9417 13.1744L35.3549 17.4603C35.1547 17.7922 35.2399 18.237 35.5455 18.4546C35.6573 18.5345 35.7826 18.5724 35.9073 18.5724C36.1231 18.5724 36.3343 18.4581 36.4609 18.2476L38.1642 15.4256L46.0526 58.0142L35.9842 60.2143C35.6263 60.2929 35.3943 60.6718 35.466 61.0606C35.5294 61.4016 35.8052 61.6374 36.114 61.6374C36.1573 61.6374 36.2012 61.6331 36.2452 61.6233L46.3136 59.4232L47.8344 67.6339C47.8977 67.9749 48.1736 68.2107 48.4824 68.2107C48.5257 68.2107 48.5696 68.2065 48.6135 68.1967C48.9714 68.1181 49.2034 67.7392 49.1316 67.3504L47.6109 59.1397L109.286 45.6633L107.587 48.4787C107.387 48.8106 107.472 49.2555 107.778 49.473C107.889 49.553 108.015 49.5909 108.139 49.5909C108.355 49.5909 108.566 49.4765 108.693 49.266L111.17 45.1609C111.22 45.1163 111.265 45.0656 111.302 45.004C111.503 44.6721 111.417 44.2273 111.112 44.0097Z" fill="#1C0F61"/>
<path d="M170.554 47.6399C171.189 50.3848 169.65 53.1689 167.128 53.8562L149.433 58.6805C146.907 59.3693 144.346 57.7028 143.712 54.958L139.271 35.7408C138.637 32.9961 140.169 30.2149 142.695 29.5261L160.391 24.7018C162.912 24.0144 165.479 25.6781 166.113 28.4229L170.554 47.6399Z" fill="#FF7742"/>
<path d="M154.517 37.3805L153.752 36.8984L153.742 36.9159L153.726 36.9067L153.299 37.7087L153.087 38.0874L153.095 38.0921L150.597 42.7828L151.715 43.456L153.633 39.8573L155.311 46.687L156.812 46.2506L155.12 39.3656L158.498 41.4896L159.161 40.3018L154.844 37.5857L154.848 37.5783L154.517 37.3805Z" fill="white"/>
<path d="M29.8681 103.587C29.7431 106.146 27.7274 108.11 25.3761 107.975L8.87415 107.025C6.51818 106.889 4.71122 104.705 4.83619 102.145L5.711 84.2241C5.83593 81.6646 7.84538 79.701 10.2014 79.8367L26.7033 80.787C29.0546 80.9224 30.8678 83.1061 30.7429 85.6657L29.8681 103.587Z" fill="#FF7742"/>
<path d="M21.1428 91.7014L21.2408 90.2966C21.2408 90.2965 21.2408 90.2963 21.2408 90.2963C21.2408 90.2961 21.2408 90.2959 21.2408 90.2958V90.2956C21.241 90.2935 21.2405 90.2917 21.2407 90.2896C21.2537 90.094 21.2489 89.9002 21.2266 89.7097C21.2211 89.6639 21.2059 89.6216 21.1985 89.5764C21.1749 89.4317 21.1497 89.2873 21.1061 89.1484C21.0987 89.125 21.0861 89.1043 21.0782 89.0812C20.9658 88.7516 20.8031 88.4404 20.5819 88.1667C20.5043 88.0708 20.4145 87.9911 20.3276 87.9078C20.2853 87.8673 20.2492 87.8201 20.2046 87.7824C20.099 87.6931 19.9838 87.621 19.868 87.5499C19.8305 87.5268 19.7976 87.4971 19.759 87.4759C19.6388 87.41 19.5109 87.3622 19.3823 87.3159C19.3405 87.3008 19.3024 87.2782 19.2596 87.2652C19.1021 87.2175 18.9387 87.1887 18.7725 87.1717C18.7549 87.17 18.739 87.1633 18.7213 87.1619C18.721 87.1619 18.7206 87.1619 18.7202 87.1619H18.72C18.0701 87.1114 17.4405 87.314 16.9188 87.719C16.8604 87.7643 16.7972 87.8004 16.7418 87.851C16.7415 87.8511 16.7415 87.8513 16.7412 87.8517C16.1849 88.359 15.8497 89.0684 15.7954 89.8479L15.703 91.1737C14.8528 91.2632 14.1609 91.9924 14.0966 92.9183L13.7793 97.4758C13.7431 97.9951 13.9103 98.5147 14.2381 98.9013C14.5474 99.266 14.971 99.4877 15.4309 99.5256L19.9706 99.8986C20.0169 99.9022 20.0628 99.9042 20.1083 99.9042C21.0373 99.9042 21.8189 99.1299 21.8873 98.1414L22.2049 93.584C22.2622 92.7594 21.8135 92.0217 21.1428 91.7014ZM17.1146 89.956C17.1417 89.5652 17.3116 89.208 17.5933 88.9512C17.6411 88.9075 17.6941 88.8736 17.7461 88.8377C18.0024 88.6616 18.3035 88.5754 18.6074 88.5951C18.6118 88.5954 18.6161 88.5944 18.6205 88.5947C18.6318 88.5956 18.6425 88.5996 18.6536 88.6009C18.7381 88.61 18.8211 88.624 18.9002 88.6479C18.9148 88.6523 18.9279 88.6603 18.9422 88.6653C19.164 88.7403 19.3583 88.8722 19.5162 89.0421C19.5382 89.0657 19.5631 89.0852 19.5836 89.1106C19.621 89.1566 19.6513 89.2085 19.6832 89.2589C19.7016 89.2882 19.7241 89.3152 19.7406 89.3455C19.7729 89.4053 19.7971 89.4699 19.8215 89.5343C19.8308 89.5592 19.8441 89.5825 19.8522 89.6078C19.8728 89.673 19.8846 89.742 19.8967 89.8106C19.9016 89.8378 19.9106 89.8641 19.9139 89.8918C19.9255 89.9881 19.9287 90.087 19.9216 90.1875L19.8318 91.4751L17.0248 91.2446L17.1146 89.956ZM20.568 98.0335C20.551 98.2793 20.3488 98.4671 20.1083 98.4671C20.0957 98.4671 20.0831 98.4666 20.0704 98.4656L15.5308 98.0926C15.2729 98.0714 15.0805 97.8434 15.0986 97.5843L15.416 93.0263C15.4331 92.7792 15.6339 92.5929 15.875 92.5929C15.8878 92.5929 15.9007 92.5934 15.9138 92.5945L20.4533 92.9674C20.7101 92.9885 20.9036 93.2153 20.8855 93.4756L20.568 98.0335Z" fill="white"/>
<path d="M18.6862 95.1004C18.7139 94.7024 18.4406 94.3583 18.0753 94.3283C17.7111 94.2983 17.3933 94.5939 17.3656 94.9919C17.3478 95.2468 17.4624 95.4714 17.6407 95.6142L17.5912 96.3237C17.5769 96.5293 17.7192 96.7079 17.9086 96.7234C18.0978 96.739 18.2644 96.5852 18.2787 96.3802L18.3281 95.6707C18.5229 95.558 18.6685 95.3553 18.6862 95.1004Z" fill="white"/>
<path d="M126.683 62.8136C126.51 62.8136 126.338 62.7406 126.208 62.5961L124.86 61.0916L123.474 62.5547C123.213 62.8318 122.794 62.8241 122.539 62.5406L120.577 60.35C120.322 60.0658 120.328 59.6111 120.59 59.3339L121.975 57.8695L120.627 56.3643C120.504 56.2282 120.437 56.0437 120.439 55.8535C120.442 55.6626 120.514 55.4809 120.639 55.3483L122.658 53.2172C122.92 52.9394 123.339 52.9478 123.593 53.2313L124.941 54.7357L126.327 53.2727C126.589 52.9955 127.007 53.0032 127.263 53.2867L129.225 55.4774C129.347 55.6142 129.415 55.7981 129.412 55.9882C129.409 56.1791 129.338 56.3608 129.212 56.4935L127.825 57.9572L129.174 59.463C129.428 59.7479 129.422 60.2026 129.161 60.4791L127.144 62.6101C127.015 62.7462 126.849 62.8136 126.683 62.8136ZM124.873 59.3571C125.045 59.3571 125.217 59.43 125.347 59.5746L126.695 61.079L127.764 59.95L126.416 58.4435C126.293 58.3066 126.226 58.1228 126.228 57.9319C126.231 57.7418 126.303 57.56 126.429 57.4274L127.815 55.9644L126.776 54.8038L125.389 56.2668C125.127 56.544 124.708 56.5363 124.454 56.2528L123.106 54.7483L122.036 55.8774L123.384 57.3818C123.639 57.666 123.633 58.1207 123.372 58.3978L121.986 59.863L123.026 61.0236L124.412 59.5606C124.54 59.4244 124.707 59.3571 124.873 59.3571Z" fill="white"/>
</svg>
