<svg width="124" height="158" viewBox="0 0 124 158" fill="none" xmlns="http://www.w3.org/2000/svg">
<path d="M79.4535 26.9946C79.4535 12.6349 68.7358 0.994141 55.5149 0.994141V26.9946H79.4535Z" fill="#EB6F5E"/>
<path d="M50.8115 32.3387V9.37695C39.4199 9.59067 30.3373 20.0944 31.1185 32.7005C31.7819 43.4048 39.7372 52.1311 49.5863 52.9474C61.0348 53.8963 70.6516 44.4163 71.2283 32.3387H50.8115Z" fill="#1C0F61"/>
<path d="M64.6567 14.0563C64.6567 14.9479 64.5097 15.6179 64.2148 16.0655C63.9207 16.5136 63.4863 16.7372 62.9117 16.7372C62.3687 16.7372 61.9479 16.5058 61.6508 16.0422C61.3522 15.579 61.2029 14.9172 61.2029 14.0563C61.2029 12.2843 61.773 11.3984 62.9117 11.3984C63.4713 11.3984 63.9026 11.6282 64.2043 12.0877C64.5059 12.5472 64.6567 13.2033 64.6567 14.0563ZM62.2473 14.0678C62.2473 14.6457 62.2994 15.0761 62.4027 15.3591C62.506 15.6421 62.6757 15.7838 62.9117 15.7838C63.3823 15.7838 63.6183 15.2117 63.6183 14.0678C63.6183 12.9244 63.3823 12.3523 62.9117 12.3523C62.6757 12.3523 62.506 12.494 62.4027 12.7769C62.2994 13.0599 62.2473 13.4904 62.2473 14.0678ZM68.1641 11.5205L63.8212 20.0233H62.7828L67.1257 11.5205H68.1641ZM69.7546 17.4645C69.7546 18.3561 69.6068 19.0249 69.3096 19.4709C69.014 19.9169 68.5819 20.1396 68.0141 20.1396C67.4711 20.1396 67.0503 19.9099 66.7502 19.4504C66.4508 18.9909 66.3007 18.3291 66.3007 17.4645C66.3007 15.6925 66.8723 14.8066 68.0141 14.8066C68.5638 14.8066 68.9914 15.0351 69.2968 15.4926C69.6022 15.9505 69.7546 16.6074 69.7546 17.4645ZM67.3444 17.4645C67.3444 18.042 67.3972 18.4745 67.5028 18.7611C67.6084 19.0482 67.7788 19.1916 68.0141 19.1916C68.4816 19.1916 68.7154 18.6158 68.7154 17.4645C68.7154 16.3285 68.4816 15.7604 68.0141 15.7604C67.7788 15.7604 67.6084 15.9001 67.5028 16.179C67.3972 16.4583 67.3444 16.8867 67.3444 17.4645Z" fill="white"/>
<path d="M83.4357 78.3317C82.705 77.44 81.1937 77.5515 80.0535 77.8003C79.2481 77.9774 78.3816 78.1606 77.4879 78.3499C73.8417 79.1219 67.7382 80.4145 66.8494 81.3008L66.4834 81.6659L65.9145 81.7105C61.2028 81.7105 49.6681 82.4703 44.3489 89.5058L44.1746 89.6971C44.1074 89.7606 35.2217 97.9974 25.4123 90.8673C25.2355 90.7389 25.1123 90.5643 25.0168 90.3745L24.9632 90.8962L24.9125 91.3899L21.5383 124.225C27.381 124.744 32.7584 125.338 33.6466 125.822C33.7646 125.886 34.0111 125.862 34.3453 125.778L32.7099 123.288L45.3808 113.467L45.4011 113.452C44.9293 113.249 44.5941 112.754 44.5941 112.17C44.5941 111.411 45.1568 110.793 45.8551 110.785C45.9995 110.779 52.932 110.35 61.0808 96.2404L61.3484 95.7767L61.8862 95.5921C68.1665 93.7107 80.7668 88.5708 83.5826 82.5677C84.1316 80.6984 84.078 79.1158 83.4357 78.3317Z" fill="#FFB699"/>
<path d="M111.817 111.744L119.29 114.937C121.848 115.883 123.234 118.935 122.357 121.719L122.077 122.623C121.201 125.404 118.391 126.906 115.828 125.956L101.024 120.887" fill="#FFB699"/>
<path d="M53.9868 157.396L31.4183 123.136L45.2043 112.423L94.5049 74.1113L117.073 108.371L53.9868 157.396Z" fill="#1C0F61"/>
<path d="M92.8338 124.631C93.5898 121.537 96.5423 119.676 99.3905 120.497L105.712 122.319C108.564 123.14 110.276 126.342 109.52 129.44C108.764 132.534 105.816 134.393 102.963 133.572L96.6418 131.752C93.7936 130.928 92.0775 127.726 92.8338 124.631Z" fill="#FFB699"/>
<path d="M104.336 134.607C103.817 134.607 103.29 134.535 102.765 134.384L96.4444 132.564C93.1745 131.618 91.2206 127.963 92.0871 124.417V124.416C92.5064 122.704 93.5191 121.267 94.9399 120.371C96.3614 119.475 98.0107 119.232 99.5891 119.687L105.91 121.509C107.488 121.964 108.813 123.064 109.637 124.605C110.462 126.147 110.685 127.941 110.267 129.656C109.538 132.634 107.05 134.607 104.336 134.607ZM93.5802 124.847C92.9317 127.5 94.3947 130.235 96.841 130.943L103.161 132.762C105.608 133.467 108.125 131.88 108.773 129.226C109.086 127.944 108.919 126.603 108.301 125.448C107.685 124.293 106.694 123.471 105.514 123.131L99.1924 121.308C98.0152 120.969 96.7784 121.151 95.7151 121.822C94.6511 122.493 93.8932 123.567 93.5802 124.847Z" fill="white"/>
<path d="M92.834 124.631C93.5901 121.537 96.5425 119.675 99.3907 120.497L105.712 122.319C108.565 123.14 110.276 126.342 109.52 129.44C108.764 132.534 105.816 134.393 102.963 133.572L96.642 131.752C93.7939 130.928 92.0778 127.727 92.834 124.631Z" fill="#FFB699"/>
<path d="M83.4968 134.326C84.253 131.23 87.2009 129.369 90.0491 130.19L96.0533 131.921C98.9061 132.743 100.618 135.947 99.8616 139.043C99.1053 142.136 96.153 143.998 93.3049 143.177L87.3004 141.445C84.4522 140.624 82.7405 137.42 83.4968 134.326Z" fill="#FFB699"/>
<path d="M94.6791 144.212C94.1595 144.212 93.6323 144.139 93.1067 143.988L87.1016 142.256C85.5255 141.802 84.2028 140.702 83.3793 139.159C82.555 137.617 82.3318 135.824 82.7503 134.112C83.1689 132.398 84.1817 130.961 85.6002 130.065C87.0202 129.169 88.6687 128.925 90.2471 129.38L96.2514 131.111C97.8298 131.566 99.154 132.666 99.9783 134.208C100.803 135.751 101.026 137.544 100.608 139.258C99.8795 142.238 97.3916 144.211 94.6791 144.212ZM88.6785 130.835C87.8799 130.835 87.0896 131.065 86.3769 131.515C85.3136 132.186 84.5565 133.261 84.2435 134.542V134.543C83.9305 135.822 84.098 137.163 84.7148 138.318C85.3317 139.473 86.3204 140.295 87.4983 140.635L93.5034 142.367C95.9528 143.071 98.4655 141.484 99.1148 138.828C99.4278 137.547 99.2603 136.206 98.6427 135.051C98.0251 133.896 97.0357 133.072 95.8555 132.733L89.8504 131.001C89.4635 130.89 89.0699 130.835 88.6785 130.835ZM83.4969 134.327H83.5045H83.4969Z" fill="white"/>
<path d="M83.4968 134.326C84.253 131.23 87.2009 129.369 90.0491 130.19L96.0533 131.921C98.9061 132.743 100.618 135.947 99.8615 139.043C99.1052 142.136 96.153 143.998 93.3048 143.177L87.3004 141.445C84.4522 140.624 82.7405 137.42 83.4968 134.326Z" fill="#FFB699"/>
<path d="M73.1274 143.145C73.8834 140.049 76.8359 138.187 79.6841 139.009L85.8694 140.792C88.7222 141.615 90.4339 144.817 89.6776 147.916C88.9216 151.009 85.9737 152.868 83.1209 152.047L76.9354 150.264C74.0828 149.445 72.3711 146.238 73.1274 143.145Z" fill="#FFB699"/>
<path d="M77.7641 127.955C84.2951 127.955 89.5895 122.205 89.5895 115.111C89.5895 108.018 84.2951 102.268 77.7641 102.268C71.2331 102.268 65.9387 108.018 65.9387 115.111C65.9387 122.205 71.2331 127.955 77.7641 127.955Z" fill="white"/>
<path d="M82.4489 116.168C82.562 117.059 82.344 117.875 81.7958 118.615C81.2475 119.356 80.424 119.959 79.3276 120.424L79.5462 122.148L78.443 122.505L78.228 120.815C76.9151 121.21 75.7357 121.341 74.6912 121.206L74.4092 118.987C74.9061 119.077 75.4951 119.109 76.1768 119.08C76.8571 119.053 77.4581 118.972 77.9777 118.84L77.6459 116.234L77.0788 116.189C75.9612 116.096 75.1475 115.864 74.6399 115.494C74.1317 115.125 73.83 114.562 73.7335 113.806C73.6302 112.992 73.8504 112.226 74.3926 111.505C74.9348 110.784 75.744 110.191 76.8193 109.727L76.6565 108.441L77.759 108.084L77.9189 109.336C79.1541 108.996 80.2981 108.894 81.3501 109.033L80.8426 111.244C79.9595 111.156 79.0727 111.215 78.1836 111.421L78.498 113.901C79.5983 113.983 80.3894 114.107 80.8712 114.271C81.3531 114.436 81.7211 114.671 81.9745 114.974C82.2279 115.277 82.3863 115.676 82.4489 116.168ZM76.1572 113.022C76.1882 113.268 76.296 113.445 76.48 113.552C76.664 113.659 76.9491 113.737 77.3352 113.787L77.0848 111.811C76.4061 112.143 76.0969 112.545 76.1572 113.022ZM80.0425 117.078C80.0123 116.843 79.8946 116.673 79.6918 116.57C79.4889 116.467 79.1941 116.387 78.8072 116.331L79.0727 118.423C79.7868 118.059 80.1096 117.611 80.0425 117.078Z" fill="#1C0F61"/>
<path d="M84.2401 77.5542L84.2394 77.5539C83.3818 76.5076 81.9015 76.2058 79.8396 76.6544C79.0374 76.831 78.1736 77.0136 77.2733 77.2042C70.6141 78.6146 67.0613 79.5023 66.1219 80.4394L66.0322 80.5292L65.8752 80.5413C60.9948 80.5455 49.1582 81.3594 43.5492 88.7215L43.4427 88.8384C42.8307 89.3946 35.4117 95.8526 26.9373 90.5202L26.6815 93.0293C36.3887 98.4224 44.7917 90.6623 44.881 90.5786L45.1802 90.2476C50.2084 83.5969 61.3557 82.879 65.9145 82.879L66.9345 82.8021L67.5595 82.1778C68.4591 81.453 75.1617 80.033 77.6937 79.4966C78.5897 79.3071 79.4592 79.1229 80.2649 78.946C81.6654 78.6409 82.415 78.8429 82.6322 79.1085C82.923 79.4642 83.0273 80.5539 82.5845 82.1199C80.0477 87.3233 68.6678 92.3475 61.5616 94.4774L60.6467 94.7912L60.1695 95.6191C52.4195 109.038 45.8689 109.613 45.8436 109.616C44.5615 109.631 43.5184 110.776 43.5184 112.17C43.5184 112.555 43.6003 112.923 43.7446 113.255L43.9387 113.466L45.692 112.197C45.6783 112.185 45.6706 112.176 45.6706 112.17C45.6706 112.052 45.7582 111.955 45.8962 111.953C45.9162 111.952 45.9676 111.949 46.0454 111.941L46.0909 111.908L46.14 111.929C47.509 111.747 54.2981 110.184 61.9932 96.8606L62.0506 96.7602L62.1719 96.7183C62.9313 96.4912 80.8078 91.0569 84.542 83.0981L84.6079 82.9224C85.2833 80.6213 85.1495 78.6649 84.2401 77.5542Z" fill="white"/>
<path d="M25.8915 85.2172L10.4513 84.0039L0.986328 129.609L21.3016 127.26C22.3102 127.373 23.2257 126.733 23.4719 125.806C23.4964 125.714 23.5221 125.621 23.5326 125.524L23.7566 123.471L27.0744 93.0794L27.3496 90.5553L27.6935 87.4064C27.8089 86.3279 27.0008 85.341 25.8915 85.2172Z" fill="#EF5A4C"/>
<path d="M122.806 117.272C122.134 115.785 120.973 114.673 119.572 114.156L113.218 111.441L111.696 112.593L119.041 115.731C120.084 116.117 120.929 116.927 121.419 118.012C121.91 119.095 121.984 120.316 121.625 121.452L121.347 122.351C120.606 124.704 118.235 125.96 116.06 125.156L107.429 122.201C106.958 121.902 106.451 121.665 105.91 121.51L102.759 120.601L101.257 120.087C101.138 120.047 101.02 120.047 100.905 120.067L99.5892 119.688C98.0108 119.232 96.3615 119.475 94.94 120.372C93.5192 121.267 92.5065 122.704 92.0872 124.417V124.417C91.5751 126.513 92.054 128.643 93.2018 130.233L90.2471 129.381C88.6687 128.926 87.0202 129.17 85.6002 130.066C84.1817 130.962 83.1689 132.399 82.7504 134.113C82.3319 135.825 82.5551 137.618 83.3793 139.16C83.3899 139.18 83.4027 139.198 83.4133 139.217L79.8825 138.199C78.3056 137.744 76.6541 137.987 75.2333 138.884C73.8126 139.78 72.7998 141.217 72.3812 142.931C71.9619 144.646 72.1859 146.44 73.0117 147.983C73.8367 149.525 75.1602 150.623 76.737 151.076L82.9231 152.859C83.448 153.01 83.9751 153.082 84.4939 153.082C87.208 153.082 89.6958 151.11 90.4243 148.132C90.8632 146.334 90.5763 144.511 89.7637 143.025L93.1067 143.989C93.6324 144.14 94.1595 144.213 94.6791 144.213C97.3917 144.212 99.8795 142.239 100.608 139.259C101.027 137.545 100.803 135.752 99.9783 134.209C99.8331 133.937 99.6668 133.685 99.4919 133.441L102.766 134.384C103.29 134.535 103.818 134.607 104.336 134.607C107.05 134.607 109.538 132.634 110.267 129.657C110.674 127.989 110.469 126.249 109.7 124.737L115.578 126.75C116.056 126.927 116.54 127.031 117.021 127.067C119.533 127.255 121.955 125.601 122.81 122.89L123.088 121.991C123.578 120.434 123.478 118.758 122.806 117.272ZM88.9312 147.702C88.2826 150.355 85.7624 151.942 83.319 151.237L77.133 149.454C75.9543 149.116 74.9649 148.294 74.3472 147.14C73.7289 145.984 73.5607 144.643 73.8744 143.362V143.361C74.1866 142.081 74.9452 141.006 76.0093 140.334C76.7235 139.884 77.5145 139.654 78.3139 139.654C78.7053 139.654 79.0989 139.709 79.4858 139.82L85.6244 141.59C86.0331 141.845 86.4701 142.05 86.9312 142.198C88.5899 143.329 89.4587 145.542 88.9312 147.702ZM99.1148 138.829C98.4655 141.485 95.9528 143.072 93.5034 142.368L87.5409 140.649C87.1628 140.413 86.757 140.219 86.3257 140.072C85.6719 139.645 85.1108 139.06 84.7149 138.319C84.098 137.164 83.9306 135.823 84.2436 134.544V134.543C84.5565 133.262 85.3137 132.187 86.377 131.516C87.0896 131.066 87.8799 130.836 88.6785 130.836C89.0699 130.836 89.4636 130.891 89.8504 131.002L95.8555 132.734C97.0357 133.073 98.0251 133.897 98.6427 135.052C99.2604 136.207 99.4278 137.548 99.1148 138.829ZM108.774 129.226C108.125 131.88 105.608 133.468 103.161 132.762L96.8411 130.943C94.3948 130.235 92.9318 127.501 93.5803 124.847C93.8933 123.568 94.6512 122.493 95.7152 121.822C96.7786 121.151 98.0153 120.969 99.1925 121.309L102.326 122.212L106.723 123.717C107.363 124.144 107.912 124.72 108.302 125.448C108.919 126.603 109.087 127.945 108.774 129.226Z" fill="white"/>
</svg>
