<svg width="129" height="158" viewBox="0 0 129 158" fill="none" xmlns="http://www.w3.org/2000/svg">
<path d="M69.3986 14.1138C66.3877 9.68751 62.8625 5.68661 58.9195 2.30138C56.656 0.355326 53.4783 0.335523 51.1929 2.25201C47.3315 5.4927 43.8611 9.32232 40.8645 13.5611C45.2733 15.1245 50.3774 15.9755 55.6937 16.0089C60.4975 16.0385 65.2482 15.3786 69.3986 14.1138Z" fill="#F9B59E"/>
<path d="M78.587 38.859C78.1331 34.2346 77.1245 29.5873 74.8543 23.8394C73.7338 21.0039 72.153 18.4068 70.5428 15.865C70.4398 15.9667 70.3194 16.05 70.1783 16.0947C65.8735 17.4408 60.9533 18.1471 55.9353 18.1399C55.8512 18.1399 55.7678 18.1385 55.6834 18.1382C49.9164 18.1032 44.3719 17.1412 39.6333 15.3613C37.918 17.9747 36.3715 20.7228 35.0454 23.5935C32.0051 30.1738 31.0988 37.1498 30.8165 44.6881C30.7198 45.0884 30.6518 45.5003 30.6518 45.9333V52.833L30.6215 53.9319C30.6195 54.0021 30.6422 54.0643 30.6518 54.1312V96.13C30.6518 98.2736 32.2516 100.011 34.2255 100.011H39.7547L39.6129 100.508H39.9615C40.0129 101.243 40.1083 101.972 40.2411 102.674L46.6578 121.09L65.0417 121.03L70.1803 104.202C70.4601 103.061 70.8063 101.529 70.9612 100.086C71.0683 100.062 71.1756 100.033 71.2835 100.011H75.5712C77.5451 100.011 79.1447 98.2736 79.1447 96.13V45.9333C79.1447 41.7178 78.9419 39.6799 78.587 38.859Z" fill="#F9B59E"/>
<path d="M55.5838 61.6289C55.5783 61.6289 55.5726 61.6289 55.5669 61.6289C53.7067 61.6289 52.2159 63.5918 50.9924 73.1009C50.1491 79.6415 49.6606 88.3247 49.6133 97.5534C49.5584 108.365 49.9939 133.515 55.2144 133.547C55.2202 133.547 55.2259 133.547 55.2316 133.547C57.0918 133.547 58.5807 131.584 59.8042 122.074C60.6472 115.534 61.136 106.85 61.1833 97.6223C61.2382 86.8106 60.8044 61.6608 55.5838 61.6289Z" fill="#FF7742"/>
<path d="M93.7454 71.3508L78.9116 51.2859C78.3755 50.5617 77.4 50.4444 76.7294 51.0267C76.3752 51.3358 76.1904 51.7787 76.1639 52.2354L76.1517 52.2344L73.7592 93.0997L73.7725 93.1008C73.7611 93.2926 73.7667 93.4886 73.8198 93.684L82.0787 124.086C82.2739 124.799 82.8744 125.291 83.5601 125.294C83.5676 125.294 83.5752 125.294 83.5828 125.294C87.2501 125.294 89.707 120.215 89.722 116.874C89.7637 115.95 91.1106 106.052 92.2983 97.3195C94.2191 83.2149 95.1226 76.4728 95.1264 75.5963C95.134 74.046 94.6395 72.5338 93.7454 71.3508Z" fill="#FF7742"/>
<path d="M34.4062 96.0262L33.152 53.9099L33.1367 53.9105C33.1234 53.4453 32.9488 52.989 32.5933 52.6682C31.9358 52.0747 30.9566 52.1704 30.4074 52.8875L15.2019 72.763C14.2833 73.9481 13.7738 75.4562 13.7738 77.1844L17.6797 119.431C17.6608 123.101 20.3962 126.102 23.7734 126.123C23.7773 126.123 23.7794 126.123 23.783 126.123C24.4442 126.123 25.0314 125.669 25.2492 124.992L34.321 96.6341C34.3851 96.4326 34.4081 96.2275 34.4018 96.0263L34.4062 96.0262Z" fill="#FF7742"/>
<path d="M69.5033 45.5221C71.3885 37.4826 66.9163 29.3054 59.5144 27.2578C52.1125 25.2103 44.5838 30.0677 42.6986 38.1072C40.8134 46.1467 45.2856 54.3239 52.6875 56.3715C60.0894 58.4191 67.6181 53.5616 69.5033 45.5221Z" fill="#FF7742"/>
<path d="M67.7581 41.492C67.3453 40.7821 66.4758 40.5671 65.8165 41.0157C65.163 41.4653 64.9662 42.4106 65.3771 43.1226L65.3791 43.1247C65.6461 43.5835 66.1046 43.8354 66.5723 43.8354C66.8281 43.8354 67.0877 43.7604 67.3188 43.601C67.9763 43.1524 68.1729 42.207 67.7581 41.492Z" fill="white"/>
<path d="M46.5407 40.6256C46.1277 39.9149 45.2582 39.6999 44.5991 40.1484C43.9455 40.5978 43.7485 41.5432 44.1597 42.2551C44.3602 42.6017 44.6729 42.8413 45.0384 42.932C45.1444 42.9575 45.2488 42.97 45.3529 42.97C45.6164 42.97 45.874 42.8897 46.103 42.7343C46.7567 42.2847 46.9536 41.3396 46.5407 40.6256Z" fill="white"/>
<path d="M64.9339 33.2185C64.735 32.8729 64.4224 32.6321 64.0549 32.5416C63.6855 32.449 63.3088 32.5201 62.9923 32.7392C62.6739 32.9574 62.4543 33.2967 62.371 33.6927C62.2876 34.0908 62.3519 34.5014 62.553 34.8468C62.7535 35.1925 63.0661 35.4323 63.4336 35.5216C63.5377 35.5474 63.6421 35.5608 63.7461 35.5608C64.0096 35.5608 64.2672 35.4805 64.4946 35.3243C64.8125 35.1062 65.0323 34.7667 65.1156 34.3706C65.199 33.9736 65.1345 33.5642 64.9339 33.2185Z" fill="white"/>
<path d="M49.367 48.9019C49.1681 48.5563 48.8555 48.3155 48.488 48.225C47.7435 48.041 46.9762 48.5521 46.8019 49.3782C46.7205 49.7763 46.7849 50.1857 46.9858 50.5302C47.1865 50.876 47.4992 51.1166 47.8667 51.2063C47.9707 51.2309 48.0749 51.2443 48.179 51.2443C48.4424 51.2443 48.7 51.164 48.9274 51.0077C49.2457 50.7896 49.4653 50.4501 49.5487 50.0541C49.6321 49.657 49.5675 49.2476 49.367 48.9019Z" fill="white"/>
<path d="M57.5501 29.5354C57.1373 28.8226 56.264 28.6128 55.6069 29.0562C54.9532 29.5058 54.7562 30.4509 55.1692 31.1649C55.4364 31.6246 55.8946 31.8767 56.3626 31.8767C56.6183 31.8767 56.8777 31.8006 57.1088 31.6421H57.1108C57.7643 31.1927 57.9613 30.2473 57.5501 29.5354Z" fill="white"/>
<path d="M56.7509 52.5791C56.3381 51.8681 55.4665 51.6521 54.8113 52.1028C54.1539 52.5512 53.9569 53.4967 54.3698 54.2096C54.5705 54.5552 54.8832 54.7959 55.2487 54.8854C55.3529 54.9112 55.4591 54.9246 55.5632 54.9246C55.8248 54.9246 56.0824 54.8443 56.3097 54.688C56.9669 54.2393 57.1658 53.294 56.7509 52.5791Z" fill="white"/>
<path d="M63.4904 48.8385C63.1209 48.7459 62.7442 48.817 62.4277 49.0361C62.1095 49.2541 61.8897 49.5937 61.8064 49.9897C61.723 50.3868 61.7875 50.7962 61.9883 51.1418C62.1872 51.4876 62.4996 51.7283 62.8671 51.8188C62.9714 51.8446 63.0756 51.8569 63.1796 51.8569C63.8198 51.8569 64.4033 51.3754 64.553 50.6676V50.6656C64.7235 49.8437 64.2461 49.0237 63.4904 48.8385Z" fill="white"/>
<path d="M56.1012 50.4891C60.5129 50.4891 64.0894 46.6047 64.0894 41.8129C64.0894 37.0212 60.5129 33.1367 56.1012 33.1367C51.6895 33.1367 48.113 37.0212 48.113 41.8129C48.113 46.6047 51.6895 50.4891 56.1012 50.4891Z" fill="white"/>
<path d="M49.9313 32.6049C49.7327 32.2593 49.4201 32.0187 49.0523 31.9281C48.3118 31.744 47.5407 32.2553 47.3664 33.0823C47.1959 33.9042 47.6736 34.7241 48.4293 34.9093C48.5335 34.935 48.6394 34.9484 48.7435 34.9484C49.0069 34.9484 49.2646 34.8672 49.4919 34.7117C49.8102 34.4936 50.0299 34.1542 50.1133 33.755C50.1967 33.359 50.1321 32.9507 49.9313 32.6049Z" fill="white"/>
<path d="M111.736 78.0762C103.923 78.0785 97.7846 81.3198 96.3459 85.9003C96.1338 86.5711 96.0231 87.268 96.0231 87.9891C96.0231 88.0736 96.0231 88.1928 96.0231 88.3303C96.0231 90.0084 96.0231 95.3272 96.0231 96.9662C96.0231 97.0451 96.0231 97.1519 96.0231 97.2774C96.0231 98.925 96.0231 104.295 96.0231 105.943C96.0231 106.022 96.0231 106.129 96.0231 106.255C96.0231 107.902 96.0231 113.273 96.0231 114.92C96.0231 114.999 96.0231 115.106 96.0231 115.231C96.0231 117.005 96.0231 123.093 96.0231 124.208C96.0231 124.892 96.1216 125.556 96.3113 126.194C97.6917 130.83 103.864 134.121 111.736 134.121C120.693 134.121 127.449 129.861 127.449 124.208C127.449 123.093 127.449 117.005 127.449 115.231C127.449 115.106 127.449 114.999 127.449 114.92C127.449 113.273 127.449 107.902 127.449 106.255C127.449 106.129 127.449 106.022 127.449 105.943C127.449 104.295 127.449 98.925 127.449 97.2774C127.449 97.1519 127.449 97.0451 127.449 96.9662C127.449 95.3272 127.449 90.0084 127.449 88.3303C127.449 88.1928 127.449 88.0736 127.449 87.9891C127.449 82.3389 120.693 78.0762 111.736 78.0762Z" fill="#FF7F4C"/>
<path d="M128.387 87.4405C127.979 81.4729 120.958 77.0391 111.736 77.0391C103.591 77.0411 97.0414 80.4683 95.4401 85.5658C95.2477 86.1772 95.129 86.8053 95.0851 87.4395C95.0729 87.5065 95.0664 87.5755 95.0664 87.646V87.991V88.336V96.9678V97.2794V105.945V106.256V114.922V115.233V124.21C95.0664 124.993 95.1795 125.768 95.4018 126.516C96.9415 131.687 103.506 135.162 111.736 135.162C121.24 135.162 128.406 130.454 128.406 124.21V115.233V114.922V106.256V105.945V97.2794V96.9678V88.336V87.991V87.646C128.406 87.576 128.399 87.507 128.387 87.4405ZM126.492 96.9678V97.2794C126.492 102.255 120.01 106.153 111.736 106.153C104.454 106.153 98.4858 103.189 97.2217 98.945C97.0611 98.4047 96.9798 97.8446 96.9798 97.2794V96.9678V93.2628C99.7344 96.7499 105.205 98.943 111.736 98.943C118.313 98.943 123.755 96.6816 126.492 93.2239V96.9678ZM97.2507 86.2376C98.5671 82.0473 104.524 79.1193 111.736 79.1172C120.01 79.1172 126.492 83.0153 126.492 87.991C126.492 92.9668 120.01 96.8648 111.736 96.8648C104.454 96.8648 98.4858 93.9008 97.2217 89.6577C97.0611 89.1169 96.9798 88.5557 96.9798 87.991C96.9798 87.3989 97.0713 86.8094 97.2507 86.2376ZM126.492 124.21C126.492 129.186 120.01 133.084 111.736 133.084C104.454 133.084 98.4858 130.12 97.2217 125.877C97.0611 125.336 96.9798 124.775 96.9798 124.21V120.505C99.7344 123.992 105.205 126.185 111.736 126.185C118.303 126.185 123.751 123.936 126.492 120.486V124.21ZM126.492 114.922V115.233C126.492 120.209 120.01 124.107 111.736 124.107C104.454 124.107 98.4858 121.143 97.2217 116.9C97.0611 116.359 96.9798 115.798 96.9798 115.233V114.922V111.528C99.7344 115.015 105.205 117.208 111.736 117.208C118.303 117.208 123.751 114.958 126.492 111.509V114.922ZM126.492 105.945V106.256C126.492 111.232 120.01 115.13 111.736 115.13C104.454 115.13 98.4858 112.166 97.2217 107.923C97.0611 107.382 96.9798 106.821 96.9798 106.256V105.945V102.551C99.7344 106.038 105.205 108.231 111.736 108.231C118.303 108.231 123.751 105.981 126.492 102.532V105.945Z" fill="white"/>
<path d="M115.418 17.8652L106.557 23.2439L101.768 32.9651L96.8155 23.3407L87.8651 18.1389L96.7264 12.7602L101.516 3.03906L106.468 12.6635L115.418 17.8652Z" fill="#F9B59E"/>
<path d="M128.998 37.245L125.527 39.3519L123.651 43.1598L121.711 39.3898L118.205 37.3523L121.676 35.2454L123.552 31.4375L125.492 35.2075L128.998 37.245Z" fill="#EB6F5E"/>
<path d="M87.0928 118.1C79.2795 118.102 73.1414 121.343 71.7027 125.924C71.4906 126.595 71.3799 127.291 71.3799 128.012C71.3799 128.097 71.3799 128.216 71.3799 128.354C71.3799 130.032 71.3799 135.351 71.3799 136.989C71.3799 137.068 71.3799 137.175 71.3799 137.301C71.3799 139.074 71.3799 145.162 71.3799 146.278C71.3799 146.962 71.4784 147.626 71.6681 148.263C73.0485 152.899 79.2212 156.191 87.0928 156.191C96.05 156.191 102.806 151.93 102.806 146.278C102.806 145.162 102.806 139.074 102.806 137.301C102.806 137.175 102.806 137.068 102.806 136.989C102.806 135.351 102.806 130.032 102.806 128.354C102.806 128.216 102.806 128.097 102.806 128.012C102.806 122.362 96.05 118.1 87.0928 118.1Z" fill="#FF7F4C"/>
<path d="M103.763 127.668H103.755C103.496 121.596 96.4202 117.061 87.0935 117.061C78.9477 117.063 72.3985 120.49 70.7972 125.588C70.5842 126.266 70.4608 126.964 70.4309 127.668L70.4272 128.013H70.4235V136.99V137.301V146.278C70.4235 147.06 70.5365 147.835 70.7589 148.583C72.2985 153.755 78.8626 157.23 87.0935 157.23C96.5968 157.23 103.763 152.522 103.763 146.278V137.301V136.99V128.013H103.759L103.763 127.668ZM72.6078 126.259C73.9241 122.069 79.881 119.141 87.0935 119.139C95.3673 119.139 101.849 123.037 101.849 128.013C101.849 132.988 95.3673 136.886 87.0935 136.886C79.8109 136.886 73.8429 133.922 72.5788 129.679C72.4181 129.138 72.3368 128.577 72.3368 128.013C72.3368 127.421 72.4284 126.831 72.6078 126.259ZM101.849 146.278C101.849 151.254 95.3673 155.152 87.0935 155.152C79.8109 155.152 73.8429 152.188 72.5788 147.944C72.4181 147.403 72.3368 146.843 72.3368 146.278V142.573C75.0915 146.06 80.5625 148.253 87.0935 148.253C93.6604 148.253 99.1081 146.003 101.849 142.553V146.278ZM101.849 137.301C101.849 142.277 95.3673 146.175 87.0935 146.175C79.8109 146.175 73.8429 143.211 72.5788 138.968C72.4181 138.427 72.3368 137.866 72.3368 137.301V136.99V133.284C75.0915 136.771 80.5625 138.964 87.0935 138.964C93.6683 138.964 99.1109 136.705 101.849 133.249V136.99V137.301Z" fill="white"/>
<path d="M17.0519 98.748C9.23865 98.7502 3.10054 101.992 1.66178 106.572C1.4497 107.243 1.33899 107.94 1.33899 108.661C1.33899 108.745 1.33899 108.865 1.33899 109.002C1.33899 110.68 1.33899 115.999 1.33899 117.638C1.33899 117.717 1.33899 117.824 1.33899 117.949C1.33899 119.597 1.33899 124.967 1.33899 126.615C1.33899 126.694 1.33899 126.801 1.33899 126.926C1.33899 128.574 1.33899 133.944 1.33899 135.592C1.33899 135.671 1.33899 135.778 1.33899 135.903C1.33899 137.676 1.33899 143.765 1.33899 144.88C1.33899 145.564 1.43755 146.228 1.62721 146.866C3.00758 151.501 9.18026 154.793 17.0519 154.793C26.0091 154.793 32.7653 150.532 32.7653 144.88C32.7653 143.765 32.7653 137.676 32.7653 135.903C32.7653 135.778 32.7653 135.671 32.7653 135.592C32.7653 133.944 32.7653 128.574 32.7653 126.926C32.7653 126.801 32.7653 126.694 32.7653 126.615C32.7653 124.967 32.7653 119.597 32.7653 117.949C32.7653 117.824 32.7653 117.717 32.7653 117.638C32.7653 115.999 32.7653 110.68 32.7653 109.002C32.7653 108.865 32.7653 108.745 32.7653 108.661C32.7653 103.011 26.0091 98.748 17.0519 98.748Z" fill="#FF7F4C"/>
<path d="M33.7032 108.11C33.2959 102.143 26.274 97.709 17.0519 97.709C8.90608 97.7115 2.35784 101.139 0.756517 106.235C0.564059 106.845 0.445408 107.474 0.401498 108.11C0.389352 108.177 0.382812 108.245 0.382812 108.316V108.661V109.006V117.638V117.949V126.615V126.927V135.592V135.903V144.88C0.382812 145.665 0.494924 146.44 0.717278 147.186C2.25787 152.358 8.82199 155.832 17.0519 155.832C26.5552 155.832 33.7219 151.124 33.7219 144.88V135.903V135.592V126.927V126.615V117.949V117.638V109.006V108.661V108.316C33.7219 108.246 33.7154 108.177 33.7032 108.11ZM31.8086 117.638V117.949C31.8086 122.925 25.3267 126.823 17.0519 126.823C9.77027 126.823 3.80127 123.859 2.53722 119.616C2.37746 119.077 2.29618 118.517 2.29618 117.949V117.638V113.934C5.05178 117.421 10.5219 119.613 17.0519 119.613C23.6282 119.613 29.0707 117.352 31.8086 113.894V117.638ZM2.56712 106.908C3.88349 102.718 9.8394 99.7897 17.0519 99.7872C25.3267 99.7872 31.8086 103.685 31.8086 108.661C31.8086 113.637 25.3267 117.535 17.0519 117.535C9.77027 117.535 3.80127 114.571 2.53722 110.328C2.37746 109.789 2.29618 109.228 2.29618 108.661C2.29618 108.067 2.3868 107.478 2.56712 106.908ZM31.8086 144.88C31.8086 149.856 25.3267 153.754 17.0519 153.754C9.77027 153.754 3.80127 150.79 2.53722 146.547C2.37746 146.008 2.29618 145.448 2.29618 144.88V141.175C5.05178 144.663 10.5219 146.855 17.0519 146.855C23.6193 146.855 29.067 144.605 31.8086 141.156V144.88ZM31.8086 135.592V135.903C31.8086 140.879 25.3267 144.777 17.0519 144.777C9.77027 144.777 3.80127 141.813 2.53722 137.569C2.37746 137.031 2.29618 136.471 2.29618 135.903V135.592V132.199C5.05178 135.686 10.5219 137.879 17.0519 137.879C23.6193 137.879 29.067 135.629 31.8086 132.179V135.592ZM31.8086 126.615V126.927C31.8086 131.902 25.3267 135.8 17.0519 135.8C9.77027 135.8 3.80221 132.836 2.53722 128.593C2.37746 128.054 2.29618 127.493 2.29618 126.927V126.615V123.222C5.05178 126.709 10.5219 128.901 17.0519 128.901C23.6193 128.901 29.067 126.651 31.8086 123.202V126.615Z" fill="white"/>
</svg>
