<svg width="48" height="48" viewBox="0 0 48 48" fill="none" xmlns="http://www.w3.org/2000/svg">
<rect opacity="0.4" width="48" height="48" rx="5" fill="#FF7742"/>
<path d="M23.9813 32.264C22.9693 32.264 22.0526 32.088 21.2313 31.736C20.4099 31.3693 19.7499 30.812 19.2513 30.064C18.7526 29.316 18.4886 28.3773 18.4593 27.248H21.2313C21.2459 27.996 21.4879 28.6267 21.9573 29.14C22.4413 29.6387 23.1159 29.888 23.9813 29.888C24.8026 29.888 25.4333 29.6607 25.8733 29.206C26.3133 28.7513 26.5333 28.1793 26.5333 27.49C26.5333 26.6833 26.2399 26.0747 25.6533 25.664C25.0813 25.2387 24.3406 25.026 23.4313 25.026H22.2873V22.716H23.4533C24.2013 22.716 24.8246 22.54 25.3233 22.188C25.8219 21.836 26.0713 21.3153 26.0713 20.626C26.0713 20.054 25.8806 19.5993 25.4993 19.262C25.1326 18.91 24.6193 18.734 23.9593 18.734C23.2406 18.734 22.6759 18.9467 22.2653 19.372C21.8693 19.7973 21.6493 20.318 21.6053 20.934H18.8553C18.9139 19.5113 19.4053 18.3893 20.3293 17.568C21.2679 16.7467 22.4779 16.336 23.9593 16.336C25.0153 16.336 25.9026 16.5267 26.6213 16.908C27.3546 17.2747 27.9046 17.766 28.2713 18.382C28.6526 18.998 28.8433 19.68 28.8433 20.428C28.8433 21.2933 28.6013 22.0267 28.1173 22.628C27.6479 23.2147 27.0613 23.6107 26.3573 23.816C27.2226 23.992 27.9266 24.4173 28.4693 25.092C29.0119 25.752 29.2833 26.588 29.2833 27.6C29.2833 28.4507 29.0779 29.228 28.6673 29.932C28.2566 30.636 27.6553 31.2007 26.8633 31.626C26.0859 32.0513 25.1253 32.264 23.9813 32.264Z" fill="#1C0F61"/>
</svg>
