<svg width="48" height="48" viewBox="0 0 48 48" fill="none" xmlns="http://www.w3.org/2000/svg">
<rect opacity="0.4" width="48" height="48" rx="5" fill="#FF7742"/>
<path d="M19.3378 32V29.954C20.2765 29.1767 21.1858 28.4067 22.0658 27.644C22.9605 26.8813 23.7525 26.126 24.4418 25.378C25.1458 24.63 25.7032 23.904 26.1138 23.2C26.5392 22.4813 26.7518 21.7847 26.7518 21.11C26.7518 20.4793 26.5758 19.922 26.2238 19.438C25.8865 18.954 25.3218 18.712 24.5298 18.712C23.7232 18.712 23.1145 18.976 22.7038 19.504C22.2932 20.032 22.0878 20.67 22.0878 21.418H19.3598C19.3892 20.2887 19.6385 19.35 20.1078 18.602C20.5772 17.8393 21.2005 17.2747 21.9778 16.908C22.7552 16.5267 23.6278 16.336 24.5958 16.336C26.1652 16.336 27.3825 16.7687 28.2478 17.634C29.1278 18.4847 29.5678 19.592 29.5678 20.956C29.5678 21.8067 29.3698 22.6353 28.9738 23.442C28.5925 24.2487 28.0865 25.026 27.4558 25.774C26.8252 26.522 26.1432 27.226 25.4098 27.886C24.6765 28.5313 23.9652 29.1327 23.2758 29.69H29.9418V32H19.3378Z" fill="#1C0F61"/>
</svg>
