<svg width="61" height="13" viewBox="0 0 61 13" fill="none" xmlns="http://www.w3.org/2000/svg">
<path d="M10.8548 4.63829L7.87941 4.20586L6.54933 1.50938C6.513 1.43555 6.45324 1.37579 6.37941 1.33946C6.19425 1.24805 5.96925 1.32422 5.87668 1.50938L4.5466 4.20586L1.57121 4.63829C1.48918 4.65 1.41418 4.68868 1.35675 4.74727C1.28733 4.81862 1.24908 4.91461 1.2504 5.01416C1.25172 5.1137 1.2925 5.20864 1.36379 5.27813L3.51652 7.37696L3.00793 10.3406C2.996 10.4096 3.00363 10.4805 3.02995 10.5453C3.05627 10.6101 3.10022 10.6663 3.15683 10.7074C3.21344 10.7485 3.28044 10.7729 3.35023 10.7779C3.42002 10.7829 3.4898 10.7682 3.55168 10.7356L6.213 9.33633L8.87433 10.7356C8.94699 10.7742 9.03136 10.7871 9.11222 10.7731C9.31613 10.7379 9.45324 10.5445 9.41808 10.3406L8.90949 7.37696L11.0622 5.27813C11.1208 5.22071 11.1595 5.14571 11.1712 5.06368C11.2028 4.8586 11.0599 4.66875 10.8548 4.63829Z" fill="#FF7742"/>
<path d="M22.8548 4.63829L19.8794 4.20586L18.5493 1.50938C18.513 1.43555 18.4532 1.37579 18.3794 1.33946C18.1943 1.24805 17.9693 1.32422 17.8767 1.50938L16.5466 4.20586L13.5712 4.63829C13.4892 4.65 13.4142 4.68868 13.3568 4.74727C13.2873 4.81862 13.2491 4.91461 13.2504 5.01416C13.2517 5.1137 13.2925 5.20864 13.3638 5.27813L15.5165 7.37696L15.0079 10.3406C14.996 10.4096 15.0036 10.4805 15.0299 10.5453C15.0563 10.6101 15.1002 10.6663 15.1568 10.7074C15.2134 10.7485 15.2804 10.7729 15.3502 10.7779C15.42 10.7829 15.4898 10.7682 15.5517 10.7356L18.213 9.33633L20.8743 10.7356C20.947 10.7742 21.0314 10.7871 21.1122 10.7731C21.3161 10.7379 21.4532 10.5445 21.4181 10.3406L20.9095 7.37696L23.0622 5.27813C23.1208 5.22071 23.1595 5.14571 23.1712 5.06368C23.2028 4.8586 23.0599 4.66875 22.8548 4.63829Z" fill="#FF7742"/>
<path d="M34.8548 4.63829L31.8794 4.20586L30.5493 1.50938C30.513 1.43555 30.4532 1.37579 30.3794 1.33946C30.1943 1.24805 29.9693 1.32422 29.8767 1.50938L28.5466 4.20586L25.5712 4.63829C25.4892 4.65 25.4142 4.68868 25.3568 4.74727C25.2873 4.81862 25.2491 4.91461 25.2504 5.01416C25.2517 5.1137 25.2925 5.20864 25.3638 5.27813L27.5165 7.37696L27.0079 10.3406C26.996 10.4096 27.0036 10.4805 27.0299 10.5453C27.0563 10.6101 27.1002 10.6663 27.1568 10.7074C27.2134 10.7485 27.2804 10.7729 27.3502 10.7779C27.42 10.7829 27.4898 10.7682 27.5517 10.7356L30.213 9.33633L32.8743 10.7356C32.947 10.7742 33.0314 10.7871 33.1122 10.7731C33.3161 10.7379 33.4532 10.5445 33.4181 10.3406L32.9095 7.37696L35.0622 5.27813C35.1208 5.22071 35.1595 5.14571 35.1712 5.06368C35.2028 4.8586 35.0599 4.66875 34.8548 4.63829Z" fill="#FF7742"/>
<path d="M46.8548 4.63829L43.8794 4.20586L42.5493 1.50938C42.513 1.43555 42.4532 1.37579 42.3794 1.33946C42.1943 1.24805 41.9693 1.32422 41.8767 1.50938L40.5466 4.20586L37.5712 4.63829C37.4892 4.65 37.4142 4.68868 37.3568 4.74727C37.2873 4.81862 37.2491 4.91461 37.2504 5.01416C37.2517 5.1137 37.2925 5.20864 37.3638 5.27813L39.5165 7.37696L39.0079 10.3406C38.996 10.4096 39.0036 10.4805 39.0299 10.5453C39.0563 10.6101 39.1002 10.6663 39.1568 10.7074C39.2134 10.7485 39.2804 10.7729 39.3502 10.7779C39.42 10.7829 39.4898 10.7682 39.5517 10.7356L42.213 9.33633L44.8743 10.7356C44.947 10.7742 45.0314 10.7871 45.1122 10.7731C45.3161 10.7379 45.4532 10.5445 45.4181 10.3406L44.9095 7.37696L47.0622 5.27813C47.1208 5.22071 47.1595 5.14571 47.1712 5.06368C47.2028 4.8586 47.0599 4.66875 46.8548 4.63829Z" fill="#FF7742"/>
<path d="M58.8548 4.63829L55.8794 4.20586L54.5493 1.50938C54.513 1.43555 54.4532 1.37579 54.3794 1.33946C54.1943 1.24805 53.9693 1.32422 53.8767 1.50938L52.5466 4.20586L49.5712 4.63829C49.4892 4.65 49.4142 4.68868 49.3568 4.74727C49.2873 4.81862 49.2491 4.91461 49.2504 5.01416C49.2517 5.1137 49.2925 5.20864 49.3638 5.27813L51.5165 7.37696L51.0079 10.3406C50.996 10.4096 51.0036 10.4805 51.0299 10.5453C51.0563 10.6101 51.1002 10.6663 51.1568 10.7074C51.2134 10.7485 51.2804 10.7729 51.3502 10.7779C51.42 10.7829 51.4898 10.7682 51.5517 10.7356L54.213 9.33633L56.8743 10.7356C56.947 10.7742 57.0314 10.7871 57.1122 10.7731C57.3161 10.7379 57.4532 10.5445 57.4181 10.3406L56.9095 7.37696L59.0622 5.27813C59.1208 5.22071 59.1595 5.14571 59.1712 5.06368C59.2028 4.8586 59.0599 4.66875 58.8548 4.63829Z" fill="#FF7742"/>
</svg>
